<svg xmlns="http://www.w3.org/2000/svg" xmlns:xlink="http://www.w3.org/1999/xlink" width="500" zoomAndPan="magnify" viewBox="0 0 375 374.999991" height="500" preserveAspectRatio="xMidYMid meet" version="1.0"><defs><g/></defs><g fill="#ffffff" fill-opacity="1"><g transform="translate(14.491926, 190.901381)"><g><path d="M 9.101562 -0.328125 C 14.714844 0.546875 21.691406 0.0546875 24.199219 -5.941406 C 25.34375 -8.71875 25.234375 -12.097656 23.980469 -14.769531 C 22.507812 -17.984375 19.621094 -19.238281 17.113281 -21.417969 C 10.410156 -27.085938 17.441406 -32.484375 23.328125 -34.335938 C 26.652344 -35.425781 25.507812 -38.96875 23.273438 -40.386719 C 20.601562 -42.074219 16.785156 -41.75 13.898438 -40.875 C 7.957031 -39.1875 3.433594 -34.335938 2.5625 -28.125 C 1.691406 -21.855469 4.414062 -17.386719 9.917969 -14.714844 C 11.9375 -13.734375 15.535156 -11.828125 13.789062 -8.992188 C 11.71875 -5.558594 7.683594 -8.9375 5.015625 -8.9375 C 1.851562 -8.992188 -0.492188 -6.429688 1.582031 -3.433594 C 3.105469 -1.253906 6.648438 -0.761719 9.101562 -0.328125 Z M 9.101562 -0.328125 "/></g></g></g><g fill="#ffffff" fill-opacity="1"><g transform="translate(47.243758, 190.901381)"><g><path d="M 9.046875 -0.109375 C 12.425781 -0.273438 15.804688 -0.21875 19.128906 -0.382812 C 21.910156 -0.546875 23.980469 -0.925781 25.070312 -3.652344 C 25.726562 -5.449219 26.105469 -8.71875 24.308594 -10.082031 C 22.292969 -11.554688 19.128906 -10.902344 16.839844 -11.007812 C 14.769531 -11.117188 9.429688 -12.808594 12.535156 -15.695312 C 14.390625 -17.441406 17.277344 -15.371094 19.457031 -15.96875 C 21.855469 -16.679688 22.402344 -19.402344 22.128906 -21.636719 C 21.964844 -23.546875 21.308594 -24.636719 19.457031 -25.34375 C 17.660156 -25.996094 13.898438 -24.796875 12.480469 -25.835938 C 10.574219 -27.195312 12.316406 -29.757812 13.679688 -30.03125 C 15.75 -30.519531 17.984375 -29.105469 20.164062 -29.976562 C 22.074219 -30.738281 23.054688 -32.539062 22.78125 -34.609375 C 22.402344 -37.496094 20.003906 -37.988281 17.496094 -38.371094 C 13.789062 -38.914062 3.980469 -40.769531 2.34375 -36.191406 C 1.636719 -34.226562 2.015625 -31.503906 1.90625 -29.484375 C 1.796875 -25.835938 1.636719 -22.183594 1.472656 -18.53125 C 1.308594 -15.425781 1.199219 -12.316406 1.035156 -9.210938 C 0.925781 -6.757812 0.21875 -3.214844 2.179688 -1.308594 C 3.980469 0.4375 6.867188 -0.0546875 9.046875 -0.109375 Z M 9.046875 -0.109375 "/></g></g></g><g fill="#ffffff" fill-opacity="1"><g transform="translate(80.21356, 190.901381)"><g><path d="M 18.148438 -0.871094 C 26.324219 -3.980469 27.140625 -15.859375 25.78125 -23.21875 C 24.253906 -31.394531 16.785156 -34.71875 9.15625 -31.992188 C -0.652344 -28.503906 -0.164062 -17.714844 2.34375 -9.429688 C 3.433594 -5.777344 4.578125 -2.617188 8.285156 -0.980469 C 11.28125 0.328125 15.042969 0.273438 18.148438 -0.871094 Z M 11.445312 -8.230469 C 9.320312 -10.410156 9.484375 -16.570312 10.355469 -19.347656 C 11.007812 -21.308594 14.390625 -24.035156 16.730469 -22.78125 C 19.839844 -21.039062 18.804688 -13.515625 18.09375 -10.738281 C 17.222656 -7.519531 14.550781 -5.070312 11.445312 -8.230469 Z M 11.445312 -8.230469 "/></g></g></g><g fill="#ffffff" fill-opacity="1"><g transform="translate(113.891781, 190.901381)"><g><path d="M 7.738281 -1.144531 C 12.152344 1.144531 20.058594 -0.164062 23.273438 -3.980469 C 27.359375 -8.773438 27.035156 -18.367188 26.871094 -24.308594 C 26.925781 -26.597656 26.980469 -29.757812 25.070312 -31.394531 C 22.671875 -33.410156 20.003906 -31.664062 19.183594 -29.050781 C 18.3125 -26.160156 19.457031 -22.183594 19.457031 -19.128906 C 19.457031 -16.132812 19.511719 -12.753906 18.148438 -9.972656 C 16.625 -6.921875 13.953125 -7.738281 12.753906 -10.738281 C 11.5 -13.953125 11.992188 -18.039062 12.046875 -21.417969 C 12.152344 -25.34375 13.082031 -34.171875 7.03125 -34.226562 C -0.652344 -34.226562 0.761719 -22.78125 1.308594 -18.039062 C 2.015625 -12.316406 1.796875 -4.195312 7.738281 -1.144531 Z M 7.738281 -1.144531 "/></g></g></g><g fill="#ffffff" fill-opacity="1"><g transform="translate(148.223903, 190.901381)"><g><path d="M 21.09375 -0.871094 C 24.636719 -2.835938 24.746094 -8.339844 21.417969 -10.574219 C 19.019531 -12.152344 16.515625 -11.609375 13.84375 -12.097656 C 11.828125 -12.480469 12.207031 -11.554688 11.882812 -13.84375 C 11.71875 -15.042969 12.046875 -16.460938 12.097656 -17.660156 C 12.261719 -22.507812 13.082031 -28.503906 11.5 -33.246094 C 10.246094 -37.117188 6.214844 -38.535156 3.378906 -35.207031 C 0.707031 -32.046875 0.925781 -26.542969 0.925781 -22.726562 C 0.871094 -18.203125 0.652344 -13.296875 1.089844 -8.773438 C 1.582031 -3.761719 4.796875 -1.691406 9.539062 -0.925781 C 12.808594 -0.382812 18.039062 0.816406 21.09375 -0.871094 Z M 21.09375 -0.871094 "/></g></g></g><g fill="#ffffff" fill-opacity="1"><g transform="translate(179.395416, 190.901381)"><g><path d="M 9.101562 -0.328125 C 14.714844 0.546875 21.691406 0.0546875 24.199219 -5.941406 C 25.34375 -8.71875 25.234375 -12.097656 23.980469 -14.769531 C 22.507812 -17.984375 19.621094 -19.238281 17.113281 -21.417969 C 10.410156 -27.085938 17.441406 -32.484375 23.328125 -34.335938 C 26.652344 -35.425781 25.507812 -38.96875 23.273438 -40.386719 C 20.601562 -42.074219 16.785156 -41.75 13.898438 -40.875 C 7.957031 -39.1875 3.433594 -34.335938 2.5625 -28.125 C 1.691406 -21.855469 4.414062 -17.386719 9.917969 -14.714844 C 11.9375 -13.734375 15.535156 -11.828125 13.789062 -8.992188 C 11.71875 -5.558594 7.683594 -8.9375 5.015625 -8.9375 C 1.851562 -8.992188 -0.492188 -6.429688 1.582031 -3.433594 C 3.105469 -1.253906 6.648438 -0.761719 9.101562 -0.328125 Z M 9.101562 -0.328125 "/></g></g></g><g fill="#ffffff" fill-opacity="1"><g transform="translate(212.147243, 190.901381)"><g><path d="M 0.980469 -34.390625 C 3.214844 -26.871094 13.242188 -33.519531 11.5 -39.023438 C 12.371094 -41.75 7.574219 -42.785156 5.886719 -42.292969 C 2.726562 -41.421875 0.0546875 -37.605469 0.980469 -34.390625 Z M 8.121094 -0.761719 C 9.757812 -1.960938 9.972656 -3.980469 10.355469 -5.832031 C 11.554688 -11.9375 12.917969 -20.492188 10.191406 -26.378906 C 8.9375 -29.050781 5.777344 -30.902344 3.433594 -28.449219 C 1.742188 -26.652344 1.742188 -22.726562 1.527344 -20.492188 C 1.144531 -15.640625 -0.0546875 -7.414062 2.070312 -2.835938 C 3.214844 -0.4375 5.722656 0.925781 8.121094 -0.761719 Z M 8.121094 -0.761719 "/></g></g></g><g fill="#ffffff" fill-opacity="1"><g transform="translate(231.275767, 190.901381)"><g><path d="M 24.144531 -1.089844 C 27.796875 -1.742188 30.519531 -7.957031 26.324219 -9.972656 C 23.707031 -11.28125 20.113281 -8.773438 17.769531 -9.917969 C 15.535156 -11.007812 18.3125 -14.824219 19.347656 -16.515625 C 22.5625 -21.800781 29.976562 -29.214844 23 -34.9375 C 18.75 -38.480469 5.886719 -40.003906 2.289062 -35.152344 C 0.546875 -32.8125 -0.0546875 -29.269531 2.671875 -27.46875 C 5.503906 -25.5625 11.335938 -26.652344 14.496094 -26.816406 C 10.574219 -21.308594 -4.742188 -6.8125 7.46875 -1.144531 C 11.882812 0.925781 19.511719 -0.273438 24.144531 -1.089844 Z M 24.144531 -1.089844 "/></g></g></g><g fill="#ffffff" fill-opacity="1"><g transform="translate(267.079198, 190.901381)"><g><path d="M 24.144531 -1.089844 C 27.796875 -1.742188 30.519531 -7.957031 26.324219 -9.972656 C 23.707031 -11.28125 20.113281 -8.773438 17.769531 -9.917969 C 15.535156 -11.007812 18.3125 -14.824219 19.347656 -16.515625 C 22.5625 -21.800781 29.976562 -29.214844 23 -34.9375 C 18.75 -38.480469 5.886719 -40.003906 2.289062 -35.152344 C 0.546875 -32.8125 -0.0546875 -29.269531 2.671875 -27.46875 C 5.503906 -25.5625 11.335938 -26.652344 14.496094 -26.816406 C 10.574219 -21.308594 -4.742188 -6.8125 7.46875 -1.144531 C 11.882812 0.925781 19.511719 -0.273438 24.144531 -1.089844 Z M 24.144531 -1.089844 "/></g></g></g><g fill="#ffffff" fill-opacity="1"><g transform="translate(302.882629, 190.901381)"><g><path d="M 21.09375 -0.871094 C 24.636719 -2.835938 24.746094 -8.339844 21.417969 -10.574219 C 19.019531 -12.152344 16.515625 -11.609375 13.84375 -12.097656 C 11.828125 -12.480469 12.207031 -11.554688 11.882812 -13.84375 C 11.71875 -15.042969 12.046875 -16.460938 12.097656 -17.660156 C 12.261719 -22.507812 13.082031 -28.503906 11.5 -33.246094 C 10.246094 -37.117188 6.214844 -38.535156 3.378906 -35.207031 C 0.707031 -32.046875 0.925781 -26.542969 0.925781 -22.726562 C 0.871094 -18.203125 0.652344 -13.296875 1.089844 -8.773438 C 1.582031 -3.761719 4.796875 -1.691406 9.539062 -0.925781 C 12.808594 -0.382812 18.039062 0.816406 21.09375 -0.871094 Z M 21.09375 -0.871094 "/></g></g></g><g fill="#ffffff" fill-opacity="1"><g transform="translate(334.054141, 190.901381)"><g><path d="M 9.046875 -0.109375 C 12.425781 -0.273438 15.804688 -0.21875 19.128906 -0.382812 C 21.910156 -0.546875 23.980469 -0.925781 25.070312 -3.652344 C 25.726562 -5.449219 26.105469 -8.71875 24.308594 -10.082031 C 22.292969 -11.554688 19.128906 -10.902344 16.839844 -11.007812 C 14.769531 -11.117188 9.429688 -12.808594 12.535156 -15.695312 C 14.390625 -17.441406 17.277344 -15.371094 19.457031 -15.96875 C 21.855469 -16.679688 22.402344 -19.402344 22.128906 -21.636719 C 21.964844 -23.546875 21.308594 -24.636719 19.457031 -25.34375 C 17.660156 -25.996094 13.898438 -24.796875 12.480469 -25.835938 C 10.574219 -27.195312 12.316406 -29.757812 13.679688 -30.03125 C 15.75 -30.519531 17.984375 -29.105469 20.164062 -29.976562 C 22.074219 -30.738281 23.054688 -32.539062 22.78125 -34.609375 C 22.402344 -37.496094 20.003906 -37.988281 17.496094 -38.371094 C 13.789062 -38.914062 3.980469 -40.769531 2.34375 -36.191406 C 1.636719 -34.226562 2.015625 -31.503906 1.90625 -29.484375 C 1.796875 -25.835938 1.636719 -22.183594 1.472656 -18.53125 C 1.308594 -15.425781 1.199219 -12.316406 1.035156 -9.210938 C 0.925781 -6.757812 0.21875 -3.214844 2.179688 -1.308594 C 3.980469 0.4375 6.867188 -0.0546875 9.046875 -0.109375 Z M 9.046875 -0.109375 "/></g></g></g><g fill="#ffffff" fill-opacity="1"><g transform="translate(66.906175, 231.609801)"><g><path d="M 5.480469 -17.761719 C 5.480469 -18.191406 5.28125 -18.519531 4.984375 -18.816406 C 4.554688 -18.984375 4.226562 -19.179688 3.761719 -19.179688 C 3.335938 -19.179688 2.871094 -19.015625 2.574219 -18.882812 C 2.179688 -18.621094 2.015625 -18.289062 2.015625 -17.859375 L 2.015625 -13.402344 C 1.980469 -12.578125 1.949219 -11.785156 1.949219 -10.992188 L 1.949219 -2.144531 C 1.949219 -1.519531 1.980469 -0.925781 2.015625 -0.363281 C 2.015625 0.199219 2.144531 0.628906 2.574219 0.792969 C 2.871094 1.089844 3.335938 1.1875 3.761719 1.089844 C 4.160156 1.089844 4.554688 0.957031 4.984375 0.660156 C 5.28125 0.527344 5.480469 0.132812 5.480469 -0.296875 L 5.480469 -5.183594 L 7.890625 -7.691406 C 8.1875 -7.164062 8.550781 -6.601562 9.113281 -6.007812 C 9.539062 -5.28125 10.035156 -4.6875 10.628906 -3.960938 C 11.09375 -3.234375 11.621094 -2.476562 12.214844 -1.75 C 12.710938 -0.957031 13.207031 -0.296875 13.800781 0.394531 C 13.964844 0.660156 14.292969 0.792969 14.757812 0.792969 C 15.085938 0.792969 15.449219 0.792969 15.847656 0.5625 C 16.144531 0.363281 16.339844 0.0976562 16.472656 -0.296875 C 16.640625 -0.59375 16.574219 -0.925781 16.277344 -1.355469 L 15.550781 -2.34375 C 15.285156 -2.609375 15.054688 -3.070312 14.757812 -3.5 C 14.492188 -3.894531 14.164062 -4.257812 13.867188 -4.6875 C 13.503906 -5.117188 13.269531 -5.511719 12.972656 -5.941406 L 12.511719 -6.535156 L 12.082031 -7.097656 C 11.785156 -7.527344 11.554688 -7.890625 11.289062 -8.320312 C 10.992188 -8.617188 10.730469 -8.980469 10.5625 -9.277344 C 10.300781 -9.574219 10.167969 -9.839844 10.035156 -10.101562 C 10.265625 -10.398438 10.464844 -10.628906 10.730469 -10.894531 L 11.523438 -11.652344 C 11.652344 -11.820312 11.886719 -12.082031 12.148438 -12.3125 C 12.347656 -12.578125 12.578125 -12.808594 12.875 -13.105469 L 13.570312 -13.832031 C 13.800781 -14.097656 14.097656 -14.359375 14.394531 -14.625 L 14.789062 -15.054688 L 15.1875 -15.484375 C 15.484375 -15.78125 15.78125 -16.078125 16.078125 -16.441406 C 16.339844 -16.769531 16.40625 -17.199219 16.40625 -17.628906 C 16.277344 -17.960938 16.144531 -18.355469 15.847656 -18.621094 C 15.550781 -18.785156 15.152344 -18.917969 14.824219 -19.015625 C 14.394531 -19.015625 13.964844 -18.882812 13.667969 -18.554688 L 12.84375 -17.695312 C 12.546875 -17.398438 12.183594 -17.066406 11.851562 -16.738281 C 11.457031 -16.308594 11.09375 -15.914062 10.695312 -15.515625 L 9.539062 -14.292969 C 9.113281 -13.867188 8.75 -13.402344 8.386719 -12.972656 C 7.988281 -12.578125 7.625 -12.183594 7.296875 -11.785156 L 5.480469 -9.839844 C 5.445312 -10.101562 5.382812 -10.398438 5.382812 -10.628906 L 5.382812 -14.230469 C 5.382812 -14.558594 5.445312 -14.957031 5.480469 -15.351562 Z M 5.480469 -17.761719 "/></g></g></g><g fill="#ffffff" fill-opacity="1"><g transform="translate(84.666361, 231.609801)"><g><path d="M 7 -10.960938 C 5.84375 -10.960938 4.917969 -10.761719 4.160156 -10.332031 C 3.402344 -9.902344 2.804688 -9.375 2.34375 -8.78125 C 1.882812 -8.121094 1.585938 -7.429688 1.417969 -6.734375 C 1.15625 -5.910156 1.121094 -5.25 1.289062 -4.554688 C 1.417969 -3.167969 1.980469 -2.113281 3.039062 -1.417969 C 4.0625 -0.660156 5.28125 -0.296875 6.734375 -0.296875 C 7.296875 -0.296875 7.988281 -0.332031 8.75 -0.59375 C 9.375 -0.726562 10.035156 -0.992188 10.628906 -1.417969 C 11.226562 -1.847656 11.6875 -2.3125 12.148438 -3.003906 C 12.480469 -3.597656 12.710938 -4.324219 12.808594 -5.316406 C 12.808594 -5.875 12.675781 -6.535156 12.511719 -7.261719 C 12.214844 -7.855469 11.886719 -8.515625 11.457031 -9.078125 C 10.992188 -9.640625 10.433594 -10.035156 9.707031 -10.464844 C 8.847656 -10.761719 8.023438 -10.960938 7 -10.960938 Z M 9.34375 -5.316406 C 9.210938 -4.753906 8.980469 -4.292969 8.648438 -3.863281 C 8.253906 -3.335938 7.726562 -3.070312 7 -3.070312 C 6.273438 -2.972656 5.746094 -3.234375 5.28125 -3.664062 C 4.722656 -3.929688 4.457031 -4.488281 4.457031 -5.183594 C 4.324219 -6.042969 4.523438 -6.769531 5.214844 -7.328125 C 5.777344 -7.757812 6.339844 -7.957031 7.066406 -7.957031 C 7.527344 -7.957031 7.890625 -7.824219 8.1875 -7.691406 C 8.484375 -7.394531 8.617188 -7.195312 8.878906 -6.898438 C 8.914062 -6.800781 8.945312 -6.636719 9.078125 -6.503906 L 9.144531 -6.304688 L 9.242188 -6.074219 L 9.242188 -5.875 C 9.242188 -5.808594 9.242188 -5.710938 9.277344 -5.644531 C 9.277344 -5.511719 9.34375 -5.445312 9.34375 -5.316406 Z M 9.34375 -5.316406 "/></g></g></g><g fill="#ffffff" fill-opacity="1"><g transform="translate(98.663241, 231.609801)"><g><path d="M 6.4375 -11.984375 C 5.546875 -11.984375 4.851562 -11.851562 4.257812 -11.554688 C 3.699219 -11.289062 3.136719 -10.960938 2.804688 -10.53125 C 2.410156 -10.003906 2.246094 -9.574219 2.113281 -9.011719 C 1.949219 -8.320312 1.882812 -7.757812 1.882812 -7.195312 C 1.847656 -6.867188 1.816406 -6.570312 1.816406 -6.304688 L 1.816406 -3.53125 C 1.816406 -3.367188 1.847656 -3.203125 1.882812 -3.003906 L 1.882812 -1.683594 C 1.882812 -1.253906 1.949219 -0.925781 2.34375 -0.726562 C 2.640625 -0.460938 3.039062 -0.296875 3.632812 -0.296875 C 3.929688 -0.296875 4.324219 -0.460938 4.753906 -0.726562 C 5.050781 -0.925781 5.28125 -1.1875 5.28125 -1.617188 L 5.28125 -6.964844 C 5.28125 -7.527344 5.316406 -7.988281 5.613281 -8.417969 C 5.777344 -8.847656 6.207031 -9.078125 7.066406 -9.078125 L 8.945312 -9.078125 C 9.410156 -9.078125 9.707031 -9.210938 10.101562 -9.507812 C 10.398438 -9.671875 10.5625 -10.003906 10.5625 -10.53125 C 10.5625 -10.828125 10.398438 -11.09375 10.101562 -11.488281 C 9.839844 -11.785156 9.410156 -11.984375 8.945312 -11.984375 Z M 6.4375 -11.984375 "/></g></g></g><g fill="#ffffff" fill-opacity="1"><g transform="translate(110.118229, 231.609801)"><g><path d="M 12.742188 -7.691406 C 12.742188 -8.253906 12.546875 -8.75 12.378906 -9.441406 C 12.082031 -9.96875 11.753906 -10.433594 11.289062 -10.960938 C 10.863281 -11.390625 10.300781 -11.6875 9.707031 -12.082031 C 8.945312 -12.347656 8.253906 -12.511719 7.527344 -12.511719 C 5.777344 -12.511719 4.324219 -12.050781 3.167969 -11.191406 C 1.949219 -10.167969 1.289062 -8.714844 1.289062 -6.734375 C 1.15625 -6.007812 1.253906 -5.382812 1.519531 -4.753906 C 1.652344 -4.0625 1.847656 -3.433594 2.246094 -2.871094 C 2.542969 -2.3125 3.070312 -1.847656 3.761719 -1.417969 C 4.324219 -0.992188 5.019531 -0.628906 5.910156 -0.460938 C 6.800781 -0.199219 7.660156 -0.230469 8.648438 -0.363281 C 9.539062 -0.394531 10.332031 -0.628906 10.925781 -0.925781 C 11.226562 -0.957031 11.355469 -1.1875 11.621094 -1.617188 C 11.785156 -1.914062 11.6875 -2.246094 11.554688 -2.640625 C 11.390625 -2.90625 11.257812 -3.070312 11.160156 -3.234375 C 10.992188 -3.367188 10.863281 -3.433594 10.695312 -3.433594 C 10.300781 -3.433594 9.9375 -3.269531 9.476562 -3.070312 C 9.179688 -2.9375 8.816406 -2.871094 8.484375 -2.871094 C 8.023438 -2.738281 7.558594 -2.804688 6.964844 -2.9375 C 6.535156 -3.003906 6.207031 -3.136719 5.910156 -3.269531 C 5.613281 -3.402344 5.382812 -3.597656 5.214844 -3.796875 C 4.753906 -4.09375 4.554688 -4.488281 4.554688 -4.917969 L 9.476562 -4.917969 C 10.761719 -4.917969 11.621094 -5.117188 12.082031 -5.808594 C 12.511719 -6.371094 12.742188 -6.964844 12.742188 -7.691406 Z M 4.390625 -7.394531 C 4.292969 -7.527344 4.324219 -7.757812 4.457031 -8.054688 C 4.523438 -8.320312 4.65625 -8.582031 4.917969 -8.847656 L 5.050781 -9.046875 L 5.28125 -9.242188 L 5.777344 -9.640625 C 6.074219 -9.773438 6.46875 -9.902344 7.066406 -9.902344 C 7.792969 -9.902344 8.351562 -9.773438 8.816406 -9.507812 C 9.144531 -9.113281 9.476562 -8.714844 9.640625 -8.253906 C 9.640625 -7.824219 9.574219 -7.59375 9.539062 -7.527344 C 9.410156 -7.394531 9.144531 -7.394531 8.945312 -7.394531 Z M 4.390625 -7.394531 "/></g></g></g><g fill="#ffffff" fill-opacity="1"><g transform="translate(124.049088, 231.609801)"><g><path d="M 14.03125 -2.113281 C 13.933594 -2.3125 13.867188 -2.476562 13.800781 -2.640625 C 13.699219 -2.839844 13.667969 -3.003906 13.667969 -3.167969 C 13.503906 -3.335938 13.402344 -3.597656 13.371094 -3.863281 C 13.269531 -4.027344 13.171875 -4.324219 13.140625 -4.621094 C 13.105469 -4.65625 13.105469 -4.722656 13.074219 -4.785156 L 13.007812 -5.019531 C 12.875 -5.183594 12.84375 -5.316406 12.808594 -5.578125 C 12.378906 -7 11.621094 -8.21875 10.695312 -9.210938 C 9.707031 -10.070312 8.484375 -10.597656 6.867188 -10.597656 C 5.976562 -10.597656 5.28125 -10.464844 4.554688 -10.167969 C 3.796875 -9.902344 3.136719 -9.476562 2.640625 -9.011719 C 2.113281 -8.417969 1.714844 -7.890625 1.417969 -7.195312 C 1.121094 -6.4375 0.992188 -5.613281 1.121094 -4.753906 C 1.121094 -3.894531 1.355469 -3.167969 1.816406 -2.574219 C 2.144531 -1.980469 2.574219 -1.484375 3.167969 -1.054688 C 3.761719 -0.660156 4.292969 -0.460938 4.984375 -0.296875 C 5.546875 -0.0664062 6.207031 -0.03125 6.800781 -0.03125 C 7.230469 -0.03125 7.660156 -0.0976562 8.089844 -0.230469 C 8.550781 -0.363281 8.878906 -0.496094 9.34375 -0.726562 C 9.671875 -0.859375 10.035156 -1.054688 10.332031 -1.355469 C 10.5 -1.484375 10.695312 -1.652344 10.863281 -1.914062 L 11.058594 -1.355469 C 11.226562 -0.925781 11.355469 -0.59375 11.785156 -0.460938 C 12.082031 -0.164062 12.546875 -0.164062 13.140625 -0.296875 C 13.4375 -0.332031 13.667969 -0.527344 13.964844 -0.925781 C 14.097656 -1.1875 14.195312 -1.585938 14.03125 -2.113281 Z M 6.734375 -7.757812 C 7.363281 -7.757812 7.921875 -7.492188 8.484375 -7.195312 C 8.878906 -6.769531 9.078125 -6.171875 9.179688 -5.316406 C 9.179688 -4.65625 8.914062 -4.125 8.484375 -3.664062 C 7.921875 -3.070312 7.363281 -2.804688 6.734375 -2.804688 C 5.976562 -2.804688 5.445312 -3.003906 4.984375 -3.433594 C 4.554688 -3.863281 4.257812 -4.359375 4.257812 -5.183594 C 4.09375 -5.910156 4.324219 -6.503906 4.917969 -7.03125 C 5.347656 -7.460938 5.976562 -7.757812 6.734375 -7.757812 Z M 6.734375 -7.757812 "/></g></g></g><g fill="#ffffff" fill-opacity="1"><g transform="translate(139.003295, 231.609801)"><g><path d="M 13.503906 -6.304688 C 13.371094 -7.988281 12.875 -9.507812 11.851562 -10.597656 C 10.863281 -11.621094 9.410156 -12.214844 7.660156 -12.214844 C 6.074219 -12.214844 4.65625 -11.753906 3.632812 -10.894531 C 2.441406 -9.9375 1.816406 -8.550781 1.816406 -6.4375 C 1.75 -5.976562 1.714844 -5.511719 1.714844 -5.117188 L 1.714844 -2.804688 C 1.714844 -2.410156 1.75 -2.046875 1.816406 -1.683594 C 1.816406 -1.15625 1.949219 -0.824219 2.246094 -0.660156 C 2.410156 -0.363281 2.839844 -0.296875 3.53125 -0.296875 C 3.996094 -0.296875 4.421875 -0.363281 4.851562 -0.660156 C 5.148438 -0.824219 5.28125 -1.15625 5.28125 -1.683594 L 5.28125 -6.304688 C 5.28125 -7.394531 5.480469 -8.089844 5.910156 -8.515625 C 6.371094 -8.816406 6.933594 -9.078125 7.660156 -9.078125 C 8.253906 -9.078125 8.75 -8.816406 9.34375 -8.515625 C 9.773438 -8.121094 10.035156 -7.296875 10.035156 -6.140625 L 10.035156 -1.617188 C 10.035156 -1.355469 10.035156 -1.1875 10.167969 -1.054688 C 10.234375 -0.792969 10.367188 -0.691406 10.628906 -0.660156 C 10.761719 -0.527344 10.894531 -0.460938 11.160156 -0.460938 C 11.289062 -0.332031 11.457031 -0.296875 11.6875 -0.296875 C 12.148438 -0.296875 12.511719 -0.363281 12.972656 -0.660156 C 13.269531 -0.824219 13.503906 -1.15625 13.503906 -1.683594 Z M 13.503906 -6.304688 "/></g></g></g><g fill="#ffffff" fill-opacity="1"><g transform="translate(154.452681, 231.609801)"><g/></g></g><g fill="#ffffff" fill-opacity="1"><g transform="translate(163.035669, 231.609801)"><g><path d="M 15.550781 -3.597656 C 15.550781 -4.6875 15.351562 -5.613281 15.054688 -6.570312 C 14.59375 -7.394531 14.0625 -7.855469 13.4375 -8.121094 C 14.195312 -8.386719 14.691406 -8.945312 15.253906 -9.902344 C 15.714844 -10.761719 16.011719 -11.753906 16.011719 -12.777344 C 16.011719 -14.328125 15.515625 -15.648438 14.492188 -16.671875 C 13.335938 -17.628906 11.820312 -18.125 9.640625 -18.125 L 6.140625 -18.125 C 4.917969 -18.125 4.027344 -17.894531 3.53125 -17.5625 C 2.9375 -17.132812 2.640625 -16.339844 2.640625 -15.351562 C 2.609375 -14.921875 2.574219 -14.425781 2.574219 -13.832031 L 2.574219 -5.382812 C 2.574219 -4.6875 2.609375 -4.0625 2.640625 -3.433594 L 2.640625 -0.925781 C 2.640625 -0.460938 2.773438 -0.0664062 3.167969 0.132812 C 3.464844 0.394531 3.863281 0.527344 4.324219 0.394531 C 4.65625 0.394531 5.019531 0.332031 5.480469 0.0664062 C 5.777344 -0.132812 5.976562 -0.496094 5.976562 -0.925781 L 5.976562 -7.195312 L 9.113281 -7.195312 C 9.738281 -7.195312 10.367188 -6.933594 11.058594 -6.503906 C 11.652344 -5.976562 12.082031 -5.414062 12.214844 -4.554688 L 12.214844 -4.292969 C 12.214844 -4.226562 12.214844 -4.160156 12.25 -4.09375 C 12.25 -3.894531 12.28125 -3.796875 12.28125 -3.664062 L 12.28125 -0.859375 C 12.28125 -0.296875 12.414062 0.132812 12.808594 0.265625 C 13.105469 0.5625 13.4375 0.59375 13.898438 0.59375 C 14.230469 0.59375 14.59375 0.496094 15.054688 0.199219 C 15.351562 0.03125 15.550781 -0.363281 15.550781 -0.792969 Z M 12.742188 -12.710938 C 12.742188 -12.183594 12.578125 -11.785156 12.445312 -11.488281 C 12.148438 -11.09375 11.917969 -10.796875 11.621094 -10.597656 C 11.289062 -10.332031 10.925781 -10.136719 10.628906 -10.101562 C 10.234375 -9.96875 10.003906 -9.902344 9.707031 -9.902344 L 5.976562 -9.902344 L 5.976562 -14.359375 C 5.976562 -14.65625 6.109375 -14.988281 6.503906 -15.121094 C 6.800781 -15.285156 7.097656 -15.351562 7.527344 -15.351562 L 9.707031 -15.351562 C 10.433594 -15.351562 11.160156 -15.121094 11.851562 -14.722656 C 12.445312 -14.164062 12.742188 -13.570312 12.742188 -12.710938 Z M 12.742188 -12.710938 "/></g></g></g><g fill="#ffffff" fill-opacity="1"><g transform="translate(181.258022, 231.609801)"><g><path d="M 12.742188 -7.691406 C 12.742188 -8.253906 12.546875 -8.75 12.378906 -9.441406 C 12.082031 -9.96875 11.753906 -10.433594 11.289062 -10.960938 C 10.863281 -11.390625 10.300781 -11.6875 9.707031 -12.082031 C 8.945312 -12.347656 8.253906 -12.511719 7.527344 -12.511719 C 5.777344 -12.511719 4.324219 -12.050781 3.167969 -11.191406 C 1.949219 -10.167969 1.289062 -8.714844 1.289062 -6.734375 C 1.15625 -6.007812 1.253906 -5.382812 1.519531 -4.753906 C 1.652344 -4.0625 1.847656 -3.433594 2.246094 -2.871094 C 2.542969 -2.3125 3.070312 -1.847656 3.761719 -1.417969 C 4.324219 -0.992188 5.019531 -0.628906 5.910156 -0.460938 C 6.800781 -0.199219 7.660156 -0.230469 8.648438 -0.363281 C 9.539062 -0.394531 10.332031 -0.628906 10.925781 -0.925781 C 11.226562 -0.957031 11.355469 -1.1875 11.621094 -1.617188 C 11.785156 -1.914062 11.6875 -2.246094 11.554688 -2.640625 C 11.390625 -2.90625 11.257812 -3.070312 11.160156 -3.234375 C 10.992188 -3.367188 10.863281 -3.433594 10.695312 -3.433594 C 10.300781 -3.433594 9.9375 -3.269531 9.476562 -3.070312 C 9.179688 -2.9375 8.816406 -2.871094 8.484375 -2.871094 C 8.023438 -2.738281 7.558594 -2.804688 6.964844 -2.9375 C 6.535156 -3.003906 6.207031 -3.136719 5.910156 -3.269531 C 5.613281 -3.402344 5.382812 -3.597656 5.214844 -3.796875 C 4.753906 -4.09375 4.554688 -4.488281 4.554688 -4.917969 L 9.476562 -4.917969 C 10.761719 -4.917969 11.621094 -5.117188 12.082031 -5.808594 C 12.511719 -6.371094 12.742188 -6.964844 12.742188 -7.691406 Z M 4.390625 -7.394531 C 4.292969 -7.527344 4.324219 -7.757812 4.457031 -8.054688 C 4.523438 -8.320312 4.65625 -8.582031 4.917969 -8.847656 L 5.050781 -9.046875 L 5.28125 -9.242188 L 5.777344 -9.640625 C 6.074219 -9.773438 6.46875 -9.902344 7.066406 -9.902344 C 7.792969 -9.902344 8.351562 -9.773438 8.816406 -9.507812 C 9.144531 -9.113281 9.476562 -8.714844 9.640625 -8.253906 C 9.640625 -7.824219 9.574219 -7.59375 9.539062 -7.527344 C 9.410156 -7.394531 9.144531 -7.394531 8.945312 -7.394531 Z M 4.390625 -7.394531 "/></g></g></g><g fill="#ffffff" fill-opacity="1"><g transform="translate(195.18888, 231.609801)"><g><path d="M 9.773438 -12.972656 C 9.476562 -13.074219 9.144531 -13.171875 8.847656 -13.207031 C 8.515625 -13.304688 8.253906 -13.335938 7.957031 -13.46875 C 7.558594 -13.46875 7.261719 -13.535156 6.964844 -13.535156 C 6.667969 -13.570312 6.40625 -13.601562 6.140625 -13.601562 C 4.6875 -13.601562 3.5 -13.269531 2.738281 -12.710938 C 1.882812 -11.984375 1.355469 -11.09375 1.222656 -10.101562 C 1.054688 -9.210938 1.289062 -8.386719 1.714844 -7.691406 C 2.046875 -6.832031 2.804688 -6.371094 3.828125 -6.074219 C 4.09375 -5.941406 4.390625 -5.875 4.6875 -5.875 C 4.886719 -5.746094 5.117188 -5.710938 5.382812 -5.710938 C 5.480469 -5.679688 5.546875 -5.644531 5.644531 -5.644531 L 6.074219 -5.644531 C 6.109375 -5.644531 6.207031 -5.613281 6.371094 -5.613281 C 6.4375 -5.578125 6.503906 -5.578125 6.570312 -5.578125 L 6.800781 -5.578125 C 7.097656 -5.480469 7.429688 -5.445312 7.726562 -5.414062 L 8.484375 -5.25 C 8.78125 -5.019531 9.046875 -4.65625 9.046875 -4.191406 C 9.046875 -3.597656 8.683594 -3.203125 8.089844 -3.167969 C 7.394531 -3.003906 6.832031 -2.90625 6.371094 -3.003906 L 6.140625 -3.003906 C 6.074219 -3.003906 6.042969 -3.039062 5.976562 -3.070312 L 5.777344 -3.070312 C 5.679688 -3.070312 5.644531 -3.136719 5.613281 -3.167969 L 5.445312 -3.167969 C 5.382812 -3.167969 5.382812 -3.203125 5.347656 -3.234375 C 5.214844 -3.234375 5.148438 -3.300781 4.984375 -3.433594 C 4.554688 -3.632812 4.09375 -3.796875 3.761719 -3.796875 C 3.335938 -3.699219 2.9375 -3.464844 2.640625 -3.167969 C 2.34375 -2.773438 2.210938 -2.441406 2.34375 -2.113281 C 2.410156 -1.683594 2.804688 -1.253906 3.402344 -0.992188 C 3.699219 -0.792969 4.0625 -0.628906 4.621094 -0.59375 C 5.050781 -0.460938 5.546875 -0.363281 6.140625 -0.363281 C 8.1875 -0.230469 9.671875 -0.5625 10.695312 -1.417969 C 11.753906 -2.113281 12.214844 -3.167969 12.214844 -4.488281 C 12.082031 -5.644531 11.652344 -6.535156 10.925781 -7.097656 C 10.070312 -7.691406 9.113281 -7.957031 7.792969 -8.121094 C 6.503906 -8.15625 5.644531 -8.253906 5.050781 -8.515625 C 4.457031 -8.648438 4.160156 -9.078125 4.324219 -9.773438 C 4.324219 -10.203125 4.554688 -10.5625 4.984375 -10.828125 C 5.28125 -10.960938 5.644531 -11.027344 6.207031 -11.027344 L 6.667969 -11.027344 C 6.800781 -10.925781 7 -10.894531 7.296875 -10.894531 C 7.460938 -10.796875 7.792969 -10.761719 8.089844 -10.761719 C 8.285156 -10.597656 8.515625 -10.53125 8.816406 -10.53125 C 9.144531 -10.398438 9.539062 -10.433594 9.839844 -10.664062 C 10.101562 -10.828125 10.332031 -11.027344 10.464844 -11.421875 C 10.5 -11.71875 10.5 -11.949219 10.464844 -12.347656 C 10.332031 -12.644531 10.070312 -12.808594 9.773438 -12.972656 Z M 9.773438 -12.972656 "/></g></g></g><g fill="#ffffff" fill-opacity="1"><g transform="translate(208.393487, 231.609801)"><g><path d="M 10.925781 -0.363281 C 11.355469 -0.363281 11.753906 -0.59375 12.148438 -0.859375 C 12.445312 -1.023438 12.578125 -1.289062 12.578125 -1.683594 C 12.578125 -1.75 12.578125 -1.847656 12.546875 -1.949219 L 12.480469 -2.246094 C 12.445312 -2.410156 12.347656 -2.542969 12.28125 -2.804688 C 12.050781 -3.070312 11.753906 -3.300781 11.160156 -3.300781 L 8.253906 -3.300781 C 7.660156 -3.300781 7.328125 -3.402344 7.296875 -3.664062 C 7.132812 -3.796875 7.066406 -4.160156 7.066406 -4.820312 L 7.066406 -8.054688 L 10.035156 -8.054688 C 10.332031 -8.054688 10.695312 -8.15625 10.992188 -8.417969 C 11.289062 -8.714844 11.457031 -9.078125 11.457031 -9.507812 C 11.457031 -9.839844 11.257812 -10.167969 11.058594 -10.464844 C 10.761719 -10.761719 10.433594 -10.894531 10.003906 -10.894531 L 7.066406 -10.894531 L 7.066406 -16.441406 C 7.066406 -16.738281 6.964844 -17.066406 6.667969 -17.332031 C 6.371094 -17.628906 5.875 -17.761719 5.382812 -17.761719 C 4.851562 -17.761719 4.359375 -17.628906 4.160156 -17.332031 C 3.863281 -17.101562 3.761719 -16.804688 3.761719 -16.539062 L 3.761719 -10.894531 L 1.519531 -10.894531 C 1.089844 -10.894531 0.859375 -10.664062 0.726562 -10.398438 C 0.460938 -10.003906 0.429688 -9.707031 0.429688 -9.441406 C 0.429688 -9.046875 0.460938 -8.78125 0.757812 -8.515625 C 0.957031 -8.1875 1.253906 -8.054688 1.652344 -8.054688 L 3.761719 -8.054688 L 3.761719 -4.324219 C 3.761719 -2.9375 4.09375 -1.980469 4.851562 -1.417969 C 5.480469 -0.691406 6.4375 -0.363281 7.726562 -0.363281 C 8.023438 -0.332031 8.285156 -0.296875 8.550781 -0.296875 L 9.9375 -0.296875 C 10.234375 -0.296875 10.5625 -0.332031 10.925781 -0.363281 Z M 10.925781 -0.363281 "/></g></g></g><g fill="#ffffff" fill-opacity="1"><g transform="translate(222.126281, 231.609801)"><g><path d="M 14.03125 -2.113281 C 13.933594 -2.3125 13.867188 -2.476562 13.800781 -2.640625 C 13.699219 -2.839844 13.667969 -3.003906 13.667969 -3.167969 C 13.503906 -3.335938 13.402344 -3.597656 13.371094 -3.863281 C 13.269531 -4.027344 13.171875 -4.324219 13.140625 -4.621094 C 13.105469 -4.65625 13.105469 -4.722656 13.074219 -4.785156 L 13.007812 -5.019531 C 12.875 -5.183594 12.84375 -5.316406 12.808594 -5.578125 C 12.378906 -7 11.621094 -8.21875 10.695312 -9.210938 C 9.707031 -10.070312 8.484375 -10.597656 6.867188 -10.597656 C 5.976562 -10.597656 5.28125 -10.464844 4.554688 -10.167969 C 3.796875 -9.902344 3.136719 -9.476562 2.640625 -9.011719 C 2.113281 -8.417969 1.714844 -7.890625 1.417969 -7.195312 C 1.121094 -6.4375 0.992188 -5.613281 1.121094 -4.753906 C 1.121094 -3.894531 1.355469 -3.167969 1.816406 -2.574219 C 2.144531 -1.980469 2.574219 -1.484375 3.167969 -1.054688 C 3.761719 -0.660156 4.292969 -0.460938 4.984375 -0.296875 C 5.546875 -0.0664062 6.207031 -0.03125 6.800781 -0.03125 C 7.230469 -0.03125 7.660156 -0.0976562 8.089844 -0.230469 C 8.550781 -0.363281 8.878906 -0.496094 9.34375 -0.726562 C 9.671875 -0.859375 10.035156 -1.054688 10.332031 -1.355469 C 10.5 -1.484375 10.695312 -1.652344 10.863281 -1.914062 L 11.058594 -1.355469 C 11.226562 -0.925781 11.355469 -0.59375 11.785156 -0.460938 C 12.082031 -0.164062 12.546875 -0.164062 13.140625 -0.296875 C 13.4375 -0.332031 13.667969 -0.527344 13.964844 -0.925781 C 14.097656 -1.1875 14.195312 -1.585938 14.03125 -2.113281 Z M 6.734375 -7.757812 C 7.363281 -7.757812 7.921875 -7.492188 8.484375 -7.195312 C 8.878906 -6.769531 9.078125 -6.171875 9.179688 -5.316406 C 9.179688 -4.65625 8.914062 -4.125 8.484375 -3.664062 C 7.921875 -3.070312 7.363281 -2.804688 6.734375 -2.804688 C 5.976562 -2.804688 5.445312 -3.003906 4.984375 -3.433594 C 4.554688 -3.863281 4.257812 -4.359375 4.257812 -5.183594 C 4.09375 -5.910156 4.324219 -6.503906 4.917969 -7.03125 C 5.347656 -7.460938 5.976562 -7.757812 6.734375 -7.757812 Z M 6.734375 -7.757812 "/></g></g></g><g fill="#ffffff" fill-opacity="1"><g transform="translate(237.080489, 231.609801)"><g><path d="M 13.734375 -11.488281 C 13.734375 -11.820312 13.503906 -12.214844 13.207031 -12.511719 C 12.808594 -12.777344 12.414062 -12.875 12.082031 -12.875 C 11.621094 -12.875 11.226562 -12.742188 10.925781 -12.578125 C 10.5 -12.28125 10.398438 -11.886719 10.398438 -11.554688 L 10.398438 -8.582031 C 10.367188 -8.1875 10.332031 -7.792969 10.332031 -7.394531 L 10.332031 -6.304688 C 10.167969 -5.050781 9.871094 -4.191406 9.410156 -3.863281 C 8.816406 -3.433594 8.320312 -3.300781 7.726562 -3.300781 C 7 -3.300781 6.4375 -3.464844 5.976562 -3.894531 C 5.382812 -4.226562 5.148438 -5.050781 5.148438 -6.207031 C 5.117188 -6.535156 5.050781 -6.898438 5.050781 -7.296875 L 5.050781 -10.101562 C 5.050781 -10.53125 5.117188 -10.960938 5.148438 -11.355469 C 5.148438 -11.785156 4.917969 -12.117188 4.621094 -12.511719 C 4.226562 -12.777344 3.929688 -12.875 3.464844 -12.875 C 2.90625 -12.875 2.542969 -12.710938 2.246094 -12.414062 C 1.847656 -12.050781 1.714844 -11.6875 1.714844 -11.355469 C 1.683594 -11.09375 1.652344 -10.894531 1.652344 -10.628906 L 1.652344 -7.988281 C 1.652344 -7.824219 1.683594 -7.625 1.714844 -7.394531 L 1.714844 -6.007812 C 1.714844 -4.984375 1.882812 -4.09375 2.179688 -3.367188 C 2.441406 -2.507812 2.9375 -1.914062 3.699219 -1.484375 C 4.09375 -1.054688 4.621094 -0.726562 5.480469 -0.59375 C 6.207031 -0.332031 7 -0.296875 7.726562 -0.296875 C 8.351562 -0.296875 9.046875 -0.332031 9.773438 -0.59375 C 10.367188 -0.726562 11.027344 -1.054688 11.621094 -1.484375 C 12.214844 -1.914062 12.710938 -2.507812 13.140625 -3.367188 C 13.4375 -4.0625 13.632812 -4.984375 13.734375 -6.007812 Z M 13.734375 -11.488281 "/></g></g></g><g fill="#ffffff" fill-opacity="1"><g transform="translate(252.463853, 231.609801)"><g><path d="M 6.4375 -11.984375 C 5.546875 -11.984375 4.851562 -11.851562 4.257812 -11.554688 C 3.699219 -11.289062 3.136719 -10.960938 2.804688 -10.53125 C 2.410156 -10.003906 2.246094 -9.574219 2.113281 -9.011719 C 1.949219 -8.320312 1.882812 -7.757812 1.882812 -7.195312 C 1.847656 -6.867188 1.816406 -6.570312 1.816406 -6.304688 L 1.816406 -3.53125 C 1.816406 -3.367188 1.847656 -3.203125 1.882812 -3.003906 L 1.882812 -1.683594 C 1.882812 -1.253906 1.949219 -0.925781 2.34375 -0.726562 C 2.640625 -0.460938 3.039062 -0.296875 3.632812 -0.296875 C 3.929688 -0.296875 4.324219 -0.460938 4.753906 -0.726562 C 5.050781 -0.925781 5.28125 -1.1875 5.28125 -1.617188 L 5.28125 -6.964844 C 5.28125 -7.527344 5.316406 -7.988281 5.613281 -8.417969 C 5.777344 -8.847656 6.207031 -9.078125 7.066406 -9.078125 L 8.945312 -9.078125 C 9.410156 -9.078125 9.707031 -9.210938 10.101562 -9.507812 C 10.398438 -9.671875 10.5625 -10.003906 10.5625 -10.53125 C 10.5625 -10.828125 10.398438 -11.09375 10.101562 -11.488281 C 9.839844 -11.785156 9.410156 -11.984375 8.945312 -11.984375 Z M 6.4375 -11.984375 "/></g></g></g><g fill="#ffffff" fill-opacity="1"><g transform="translate(263.91884, 231.609801)"><g><path d="M 14.03125 -2.113281 C 13.933594 -2.3125 13.867188 -2.476562 13.800781 -2.640625 C 13.699219 -2.839844 13.667969 -3.003906 13.667969 -3.167969 C 13.503906 -3.335938 13.402344 -3.597656 13.371094 -3.863281 C 13.269531 -4.027344 13.171875 -4.324219 13.140625 -4.621094 C 13.105469 -4.65625 13.105469 -4.722656 13.074219 -4.785156 L 13.007812 -5.019531 C 12.875 -5.183594 12.84375 -5.316406 12.808594 -5.578125 C 12.378906 -7 11.621094 -8.21875 10.695312 -9.210938 C 9.707031 -10.070312 8.484375 -10.597656 6.867188 -10.597656 C 5.976562 -10.597656 5.28125 -10.464844 4.554688 -10.167969 C 3.796875 -9.902344 3.136719 -9.476562 2.640625 -9.011719 C 2.113281 -8.417969 1.714844 -7.890625 1.417969 -7.195312 C 1.121094 -6.4375 0.992188 -5.613281 1.121094 -4.753906 C 1.121094 -3.894531 1.355469 -3.167969 1.816406 -2.574219 C 2.144531 -1.980469 2.574219 -1.484375 3.167969 -1.054688 C 3.761719 -0.660156 4.292969 -0.460938 4.984375 -0.296875 C 5.546875 -0.0664062 6.207031 -0.03125 6.800781 -0.03125 C 7.230469 -0.03125 7.660156 -0.0976562 8.089844 -0.230469 C 8.550781 -0.363281 8.878906 -0.496094 9.34375 -0.726562 C 9.671875 -0.859375 10.035156 -1.054688 10.332031 -1.355469 C 10.5 -1.484375 10.695312 -1.652344 10.863281 -1.914062 L 11.058594 -1.355469 C 11.226562 -0.925781 11.355469 -0.59375 11.785156 -0.460938 C 12.082031 -0.164062 12.546875 -0.164062 13.140625 -0.296875 C 13.4375 -0.332031 13.667969 -0.527344 13.964844 -0.925781 C 14.097656 -1.1875 14.195312 -1.585938 14.03125 -2.113281 Z M 6.734375 -7.757812 C 7.363281 -7.757812 7.921875 -7.492188 8.484375 -7.195312 C 8.878906 -6.769531 9.078125 -6.171875 9.179688 -5.316406 C 9.179688 -4.65625 8.914062 -4.125 8.484375 -3.664062 C 7.921875 -3.070312 7.363281 -2.804688 6.734375 -2.804688 C 5.976562 -2.804688 5.445312 -3.003906 4.984375 -3.433594 C 4.554688 -3.863281 4.257812 -4.359375 4.257812 -5.183594 C 4.09375 -5.910156 4.324219 -6.503906 4.917969 -7.03125 C 5.347656 -7.460938 5.976562 -7.757812 6.734375 -7.757812 Z M 6.734375 -7.757812 "/></g></g></g><g fill="#ffffff" fill-opacity="1"><g transform="translate(278.873048, 231.609801)"><g><path d="M 13.503906 -6.304688 C 13.371094 -7.988281 12.875 -9.507812 11.851562 -10.597656 C 10.863281 -11.621094 9.410156 -12.214844 7.660156 -12.214844 C 6.074219 -12.214844 4.65625 -11.753906 3.632812 -10.894531 C 2.441406 -9.9375 1.816406 -8.550781 1.816406 -6.4375 C 1.75 -5.976562 1.714844 -5.511719 1.714844 -5.117188 L 1.714844 -2.804688 C 1.714844 -2.410156 1.75 -2.046875 1.816406 -1.683594 C 1.816406 -1.15625 1.949219 -0.824219 2.246094 -0.660156 C 2.410156 -0.363281 2.839844 -0.296875 3.53125 -0.296875 C 3.996094 -0.296875 4.421875 -0.363281 4.851562 -0.660156 C 5.148438 -0.824219 5.28125 -1.15625 5.28125 -1.683594 L 5.28125 -6.304688 C 5.28125 -7.394531 5.480469 -8.089844 5.910156 -8.515625 C 6.371094 -8.816406 6.933594 -9.078125 7.660156 -9.078125 C 8.253906 -9.078125 8.75 -8.816406 9.34375 -8.515625 C 9.773438 -8.121094 10.035156 -7.296875 10.035156 -6.140625 L 10.035156 -1.617188 C 10.035156 -1.355469 10.035156 -1.1875 10.167969 -1.054688 C 10.234375 -0.792969 10.367188 -0.691406 10.628906 -0.660156 C 10.761719 -0.527344 10.894531 -0.460938 11.160156 -0.460938 C 11.289062 -0.332031 11.457031 -0.296875 11.6875 -0.296875 C 12.148438 -0.296875 12.511719 -0.363281 12.972656 -0.660156 C 13.269531 -0.824219 13.503906 -1.15625 13.503906 -1.683594 Z M 13.503906 -6.304688 "/></g></g></g><g fill="#ffffff" fill-opacity="1"><g transform="translate(294.322433, 231.609801)"><g><path d="M 10.925781 -0.363281 C 11.355469 -0.363281 11.753906 -0.59375 12.148438 -0.859375 C 12.445312 -1.023438 12.578125 -1.289062 12.578125 -1.683594 C 12.578125 -1.75 12.578125 -1.847656 12.546875 -1.949219 L 12.480469 -2.246094 C 12.445312 -2.410156 12.347656 -2.542969 12.28125 -2.804688 C 12.050781 -3.070312 11.753906 -3.300781 11.160156 -3.300781 L 8.253906 -3.300781 C 7.660156 -3.300781 7.328125 -3.402344 7.296875 -3.664062 C 7.132812 -3.796875 7.066406 -4.160156 7.066406 -4.820312 L 7.066406 -8.054688 L 10.035156 -8.054688 C 10.332031 -8.054688 10.695312 -8.15625 10.992188 -8.417969 C 11.289062 -8.714844 11.457031 -9.078125 11.457031 -9.507812 C 11.457031 -9.839844 11.257812 -10.167969 11.058594 -10.464844 C 10.761719 -10.761719 10.433594 -10.894531 10.003906 -10.894531 L 7.066406 -10.894531 L 7.066406 -16.441406 C 7.066406 -16.738281 6.964844 -17.066406 6.667969 -17.332031 C 6.371094 -17.628906 5.875 -17.761719 5.382812 -17.761719 C 4.851562 -17.761719 4.359375 -17.628906 4.160156 -17.332031 C 3.863281 -17.101562 3.761719 -16.804688 3.761719 -16.539062 L 3.761719 -10.894531 L 1.519531 -10.894531 C 1.089844 -10.894531 0.859375 -10.664062 0.726562 -10.398438 C 0.460938 -10.003906 0.429688 -9.707031 0.429688 -9.441406 C 0.429688 -9.046875 0.460938 -8.78125 0.757812 -8.515625 C 0.957031 -8.1875 1.253906 -8.054688 1.652344 -8.054688 L 3.761719 -8.054688 L 3.761719 -4.324219 C 3.761719 -2.9375 4.09375 -1.980469 4.851562 -1.417969 C 5.480469 -0.691406 6.4375 -0.363281 7.726562 -0.363281 C 8.023438 -0.332031 8.285156 -0.296875 8.550781 -0.296875 L 9.9375 -0.296875 C 10.234375 -0.296875 10.5625 -0.332031 10.925781 -0.363281 Z M 10.925781 -0.363281 "/></g></g></g></svg>