<svg xmlns="http://www.w3.org/2000/svg" xmlns:xlink="http://www.w3.org/1999/xlink" width="500" zoomAndPan="magnify" viewBox="0 0 375 374.999991" height="500" preserveAspectRatio="xMidYMid meet" version="1.0"><defs><g/><clipPath id="f81bc3c0a7"><path d="M 142.074219 80.703125 L 232.925781 80.703125 L 232.925781 166.316406 L 142.074219 166.316406 Z M 142.074219 80.703125 " clip-rule="nonzero"/></clipPath><clipPath id="09bad7803a"><path d="M 166.097656 80.703125 L 166.097656 166.136719 C 166.347656 166.15625 166.597656 166.15625 166.847656 166.15625 L 208.007812 166.15625 L 208.007812 80.703125 Z M 214.449219 80.703125 L 208.007812 80.703125 L 208.007812 166.136719 L 208.152344 166.136719 C 218.5625 166.136719 227.703125 157.640625 228.453125 147.265625 L 231.980469 99.558594 C 232.75 89.199219 224.859375 80.703125 214.449219 80.703125 Z M 160.550781 80.703125 C 150.140625 80.703125 142.25 89.199219 143.019531 99.574219 L 146.546875 147.28125 C 147.296875 157.40625 156.027344 165.742188 166.113281 166.136719 L 166.113281 80.703125 Z M 160.550781 80.703125 " clip-rule="nonzero"/></clipPath><clipPath id="1b890da662"><path d="M 146 83.824219 L 229 83.824219 L 229 163.179688 L 146 163.179688 Z M 146 83.824219 " clip-rule="nonzero"/></clipPath><clipPath id="f103661493"><path d="M 167.660156 83.824219 L 167.660156 163.015625 C 167.894531 163.03125 168.125 163.03125 168.359375 163.03125 L 206.511719 163.03125 L 206.511719 83.824219 Z M 212.480469 83.824219 L 206.511719 83.824219 L 206.511719 163.015625 L 206.640625 163.015625 C 216.292969 163.015625 224.765625 155.140625 225.460938 145.523438 L 228.726562 101.300781 C 229.441406 91.703125 222.128906 83.824219 212.480469 83.824219 Z M 162.519531 83.824219 C 152.871094 83.824219 145.558594 91.703125 146.273438 101.316406 L 149.539062 145.539062 C 150.234375 154.921875 158.324219 162.648438 167.675781 163.015625 L 167.675781 83.824219 Z M 162.519531 83.824219 " clip-rule="nonzero"/></clipPath><clipPath id="ede8f0f137"><path d="M 148 85.730469 L 227 85.730469 L 227 161.265625 L 148 161.265625 Z M 148 85.730469 " clip-rule="nonzero"/></clipPath><clipPath id="8959ceefd6"><path d="M 168.617188 85.730469 L 168.617188 161.109375 C 168.835938 161.125 169.058594 161.125 169.277344 161.125 L 205.59375 161.125 L 205.59375 85.730469 Z M 211.277344 85.730469 L 205.59375 85.730469 L 205.59375 161.109375 L 205.722656 161.109375 C 214.90625 161.109375 222.972656 153.613281 223.632812 144.457031 L 226.742188 102.367188 C 227.421875 93.226562 220.460938 85.730469 211.277344 85.730469 Z M 163.722656 85.730469 C 154.539062 85.730469 147.578125 93.226562 148.257812 102.382812 L 151.367188 144.472656 C 152.027344 153.40625 159.730469 160.761719 168.632812 161.109375 L 168.632812 85.730469 Z M 163.722656 85.730469 " clip-rule="nonzero"/></clipPath><clipPath id="ce3833f71e"><path d="M 163.339844 117.554688 L 176.347656 117.554688 L 176.347656 126.84375 L 163.339844 126.84375 Z M 163.339844 117.554688 " clip-rule="nonzero"/></clipPath><clipPath id="5d650bf430"><path d="M 163.429688 126.054688 C 163.371094 125.65625 163.339844 125.253906 163.339844 124.855469 C 163.339844 120.851562 166.222656 117.554688 169.84375 117.554688 C 173.464844 117.554688 176.347656 120.851562 176.347656 124.855469 C 176.347656 125.253906 176.320312 125.65625 176.261719 126.054688 C 176.109375 127.113281 174.578125 127.113281 174.425781 126.054688 C 174.039062 123.441406 172.085938 121.539062 169.84375 121.539062 C 167.601562 121.539062 165.648438 123.441406 165.265625 126.054688 C 165.113281 127.113281 163.582031 127.113281 163.429688 126.054688 Z M 163.429688 126.054688 " clip-rule="nonzero"/></clipPath><clipPath id="bfe6cd77ae"><path d="M 198.644531 117.554688 L 211.457031 117.554688 L 211.457031 126.84375 L 198.644531 126.84375 Z M 198.644531 117.554688 " clip-rule="nonzero"/></clipPath><clipPath id="341c97737e"><path d="M 198.730469 126.054688 C 198.671875 125.65625 198.644531 125.253906 198.644531 124.855469 C 198.644531 120.851562 201.527344 117.554688 205.148438 117.554688 C 208.769531 117.554688 211.652344 120.851562 211.652344 124.855469 C 211.652344 125.253906 211.621094 125.65625 211.5625 126.054688 C 211.410156 127.113281 209.878906 127.113281 209.726562 126.054688 C 209.34375 123.441406 207.390625 121.539062 205.148438 121.539062 C 202.90625 121.539062 200.953125 123.441406 200.566406 126.054688 C 200.414062 127.113281 198.882812 127.113281 198.730469 126.054688 Z M 198.730469 126.054688 " clip-rule="nonzero"/></clipPath><clipPath id="1e28b3e9bc"><path d="M 168 128.703125 L 207 128.703125 L 207 150.953125 L 168 150.953125 Z M 168 128.703125 " clip-rule="nonzero"/></clipPath><clipPath id="2cb1df54ec"><path d="M 192.757812 144.808594 C 193.695312 142.414062 193.992188 139.394531 193.621094 135.730469 C 193.5625 135.175781 193.585938 134.625 193.679688 134.089844 C 194.246094 130.742188 197.417969 128.492188 200.757812 129.066406 C 201.234375 129.144531 201.707031 129.277344 202.15625 129.457031 C 205.023438 130.589844 206.78125 133.472656 206.519531 136.503906 L 206.496094 136.644531 C 206.441406 136.882812 206.375 137.121094 206.292969 137.355469 C 206.289062 137.421875 206.273438 137.484375 206.25 137.550781 C 203.871094 145.460938 196.25 151 187.496094 151 C 178.742188 151 171.121094 145.460938 168.742188 137.550781 C 168.429688 136.519531 169.832031 135.875 170.410156 136.78125 C 173.820312 142.066406 180.304688 145.425781 187.496094 145.425781 C 189.304688 145.425781 191.074219 145.214844 192.757812 144.808594 Z M 201.476562 131.179688 C 201.140625 131.046875 200.800781 130.953125 200.445312 130.894531 C 198.113281 130.496094 195.910156 132.0625 195.507812 134.394531 C 195.445312 134.777344 195.429688 135.164062 195.472656 135.539062 C 196.015625 141 195.183594 145.28125 192.925781 148.335938 C 198.738281 146.558594 203.253906 141.984375 204.675781 136.273438 C 204.835938 134.082031 203.550781 132.003906 201.476562 131.179688 Z M 201.476562 131.179688 " clip-rule="nonzero"/></clipPath></defs><g clip-path="url(#f81bc3c0a7)"><g clip-path="url(#09bad7803a)"><path fill="#ffffff" d="M 142.96875 80.703125 L 232.03125 80.703125 L 232.03125 166.136719 L 142.96875 166.136719 Z M 142.96875 80.703125 " fill-opacity="1" fill-rule="nonzero"/></g></g><g clip-path="url(#1b890da662)"><g clip-path="url(#f103661493)"><path fill="#00000" d="M 146.222656 83.824219 L 228.777344 83.824219 L 228.777344 163.015625 L 146.222656 163.015625 Z M 146.222656 83.824219 " fill-opacity="1" fill-rule="nonzero"/></g></g><g clip-path="url(#ede8f0f137)"><g clip-path="url(#8959ceefd6)"><path fill="#ffffff" d="M 148.210938 85.730469 L 226.789062 85.730469 L 226.789062 161.109375 L 148.210938 161.109375 Z M 148.210938 85.730469 " fill-opacity="1" fill-rule="nonzero"/></g></g><g clip-path="url(#ce3833f71e)"><g clip-path="url(#5d650bf430)"><path fill="#00000" d="M 154.050781 136.136719 L 185.636719 136.136719 L 185.636719 108.265625 L 154.050781 108.265625 Z M 154.050781 136.136719 " fill-opacity="1" fill-rule="nonzero"/></g></g><g clip-path="url(#bfe6cd77ae)"><g clip-path="url(#341c97737e)"><path fill="#00000" d="M 189.355469 136.136719 L 220.941406 136.136719 L 220.941406 108.265625 L 189.355469 108.265625 Z M 189.355469 136.136719 " fill-opacity="1" fill-rule="nonzero"/></g></g><g clip-path="url(#1e28b3e9bc)"><g clip-path="url(#2cb1df54ec)"><path fill="#00000" d="M 159.40625 160.289062 L 215.839844 160.289062 L 215.839844 119.679688 L 159.40625 119.679688 Z M 159.40625 160.289062 " fill-opacity="1" fill-rule="nonzero"/></g></g><g fill="#ffffff" fill-opacity="1"><g transform="translate(6.273681, 220.734052)"><g><path d="M 9.535156 -0.34375 C 15.414062 0.570312 22.722656 0.0585938 25.347656 -6.222656 C 26.546875 -9.132812 26.433594 -12.675781 25.121094 -15.472656 C 23.578125 -18.839844 20.554688 -20.152344 17.925781 -22.4375 C 10.90625 -28.375 18.269531 -34.027344 24.433594 -35.96875 C 27.917969 -37.109375 26.71875 -40.820312 24.378906 -42.304688 C 21.582031 -44.074219 17.585938 -43.730469 14.558594 -42.820312 C 8.335938 -41.050781 3.597656 -35.96875 2.683594 -29.460938 C 1.769531 -22.894531 4.625 -18.210938 10.390625 -15.414062 C 12.503906 -14.386719 16.269531 -12.390625 14.445312 -9.421875 C 12.273438 -5.824219 8.050781 -9.363281 5.253906 -9.363281 C 1.941406 -9.421875 -0.515625 -6.738281 1.65625 -3.597656 C 3.253906 -1.3125 6.964844 -0.800781 9.535156 -0.34375 Z M 9.535156 -0.34375 "/></g></g></g><g fill="#ffffff" fill-opacity="1"><g transform="translate(40.581294, 220.734052)"><g><path d="M 9.476562 -0.113281 C 13.015625 -0.285156 16.554688 -0.226562 20.039062 -0.398438 C 22.949219 -0.570312 25.121094 -0.96875 26.261719 -3.824219 C 26.945312 -5.710938 27.347656 -9.132812 25.460938 -10.5625 C 23.351562 -12.101562 20.039062 -11.417969 17.640625 -11.53125 C 15.472656 -11.648438 9.875 -13.417969 13.132812 -16.441406 C 15.070312 -18.269531 18.097656 -16.101562 20.382812 -16.726562 C 22.894531 -17.46875 23.464844 -20.324219 23.179688 -22.664062 C 23.007812 -24.664062 22.324219 -25.804688 20.382812 -26.546875 C 18.496094 -27.234375 14.558594 -25.976562 13.074219 -27.0625 C 11.074219 -28.488281 12.902344 -31.171875 14.328125 -31.457031 C 16.5 -31.972656 18.839844 -30.488281 21.125 -31.398438 C 23.121094 -32.199219 24.148438 -34.082031 23.863281 -36.253906 C 23.464844 -39.277344 20.953125 -39.792969 18.328125 -40.191406 C 14.445312 -40.761719 4.167969 -42.703125 2.453125 -37.910156 C 1.710938 -35.851562 2.113281 -33 2 -30.886719 C 1.882812 -27.0625 1.710938 -23.234375 1.542969 -19.410156 C 1.371094 -16.15625 1.257812 -12.902344 1.085938 -9.648438 C 0.96875 -7.078125 0.226562 -3.367188 2.285156 -1.371094 C 4.167969 0.457031 7.195312 -0.0585938 9.476562 -0.113281 Z M 9.476562 -0.113281 "/></g></g></g><g fill="#ffffff" fill-opacity="1"><g transform="translate(75.117231, 220.734052)"><g><path d="M 19.011719 -0.914062 C 27.574219 -4.167969 28.429688 -16.613281 27.003906 -24.320312 C 25.40625 -32.882812 17.585938 -36.367188 9.589844 -33.511719 C -0.683594 -29.859375 -0.171875 -18.554688 2.453125 -9.875 C 3.597656 -6.050781 4.796875 -2.742188 8.679688 -1.027344 C 11.816406 0.34375 15.757812 0.285156 19.011719 -0.914062 Z M 11.988281 -8.621094 C 9.761719 -10.90625 9.933594 -17.355469 10.847656 -20.265625 C 11.53125 -22.324219 15.070312 -25.175781 17.527344 -23.863281 C 20.78125 -22.039062 19.695312 -14.160156 18.953125 -11.246094 C 18.039062 -7.878906 15.242188 -5.308594 11.988281 -8.621094 Z M 11.988281 -8.621094 "/></g></g></g><g fill="#ffffff" fill-opacity="1"><g transform="translate(110.395239, 220.734052)"><g><path d="M 8.105469 -1.199219 C 12.730469 1.199219 21.007812 -0.171875 24.378906 -4.167969 C 28.660156 -9.191406 28.316406 -19.238281 28.144531 -25.460938 C 28.203125 -27.859375 28.261719 -31.171875 26.261719 -32.882812 C 23.75 -34.996094 20.953125 -33.171875 20.097656 -30.429688 C 19.183594 -27.402344 20.382812 -23.234375 20.382812 -20.039062 C 20.382812 -16.898438 20.4375 -13.359375 19.011719 -10.449219 C 17.414062 -7.25 14.617188 -8.105469 13.359375 -11.246094 C 12.046875 -14.617188 12.558594 -18.898438 12.617188 -22.4375 C 12.730469 -26.546875 13.703125 -35.796875 7.363281 -35.851562 C -0.683594 -35.851562 0.800781 -23.863281 1.371094 -18.898438 C 2.113281 -12.902344 1.882812 -4.394531 8.105469 -1.199219 Z M 8.105469 -1.199219 "/></g></g></g><g fill="#ffffff" fill-opacity="1"><g transform="translate(146.358209, 220.734052)"><g><path d="M 22.09375 -0.914062 C 25.804688 -2.96875 25.917969 -8.734375 22.4375 -11.074219 C 19.925781 -12.730469 17.296875 -12.160156 14.5 -12.675781 C 12.390625 -13.074219 12.789062 -12.101562 12.445312 -14.5 C 12.273438 -15.757812 12.617188 -17.242188 12.675781 -18.496094 C 12.84375 -23.578125 13.703125 -29.859375 12.046875 -34.824219 C 10.734375 -38.878906 6.507812 -40.363281 3.539062 -36.882812 C 0.742188 -33.570312 0.96875 -27.804688 0.96875 -23.808594 C 0.914062 -19.070312 0.683594 -13.929688 1.140625 -9.191406 C 1.65625 -3.9375 5.023438 -1.769531 9.992188 -0.96875 C 13.417969 -0.398438 18.898438 0.855469 22.09375 -0.914062 Z M 22.09375 -0.914062 "/></g></g></g><g fill="#ffffff" fill-opacity="1"><g transform="translate(179.010434, 220.734052)"><g><path d="M 9.535156 -0.34375 C 15.414062 0.570312 22.722656 0.0585938 25.347656 -6.222656 C 26.546875 -9.132812 26.433594 -12.675781 25.121094 -15.472656 C 23.578125 -18.839844 20.554688 -20.152344 17.925781 -22.4375 C 10.90625 -28.375 18.269531 -34.027344 24.433594 -35.96875 C 27.917969 -37.109375 26.71875 -40.820312 24.378906 -42.304688 C 21.582031 -44.074219 17.585938 -43.730469 14.558594 -42.820312 C 8.335938 -41.050781 3.597656 -35.96875 2.683594 -29.460938 C 1.769531 -22.894531 4.625 -18.210938 10.390625 -15.414062 C 12.503906 -14.386719 16.269531 -12.390625 14.445312 -9.421875 C 12.273438 -5.824219 8.050781 -9.363281 5.253906 -9.363281 C 1.941406 -9.421875 -0.515625 -6.738281 1.65625 -3.597656 C 3.253906 -1.3125 6.964844 -0.800781 9.535156 -0.34375 Z M 9.535156 -0.34375 "/></g></g></g><g fill="#ffffff" fill-opacity="1"><g transform="translate(213.318042, 220.734052)"><g><path d="M 1.027344 -36.023438 C 3.367188 -28.144531 13.875 -35.109375 12.046875 -40.878906 C 12.960938 -43.730469 7.9375 -44.816406 6.164062 -44.304688 C 2.855469 -43.390625 0.0585938 -39.394531 1.027344 -36.023438 Z M 8.507812 -0.800781 C 10.21875 -2.054688 10.449219 -4.167969 10.847656 -6.109375 C 12.101562 -12.503906 13.53125 -21.464844 10.675781 -27.632812 C 9.363281 -30.429688 6.050781 -32.371094 3.597656 -29.800781 C 1.828125 -27.917969 1.828125 -23.808594 1.597656 -21.464844 C 1.199219 -16.386719 -0.0585938 -7.765625 2.167969 -2.96875 C 3.367188 -0.457031 5.996094 0.96875 8.507812 -0.800781 Z M 8.507812 -0.800781 "/></g></g></g><g fill="#ffffff" fill-opacity="1"><g transform="translate(233.355211, 220.734052)"><g><path d="M 25.292969 -1.140625 C 29.117188 -1.828125 31.972656 -8.335938 27.574219 -10.449219 C 24.835938 -11.816406 21.066406 -9.191406 18.613281 -10.390625 C 16.269531 -11.53125 19.183594 -15.527344 20.265625 -17.296875 C 23.636719 -22.835938 31.398438 -30.601562 24.09375 -36.59375 C 19.640625 -40.308594 6.164062 -41.90625 2.398438 -36.824219 C 0.570312 -34.367188 -0.0585938 -30.65625 2.796875 -28.773438 C 5.765625 -26.777344 11.875 -27.917969 15.1875 -28.089844 C 11.074219 -22.324219 -4.96875 -7.136719 7.820312 -1.199219 C 12.445312 0.96875 20.4375 -0.285156 25.292969 -1.140625 Z M 25.292969 -1.140625 "/></g></g></g><g fill="#ffffff" fill-opacity="1"><g transform="translate(270.859381, 220.734052)"><g><path d="M 25.292969 -1.140625 C 29.117188 -1.828125 31.972656 -8.335938 27.574219 -10.449219 C 24.835938 -11.816406 21.066406 -9.191406 18.613281 -10.390625 C 16.269531 -11.53125 19.183594 -15.527344 20.265625 -17.296875 C 23.636719 -22.835938 31.398438 -30.601562 24.09375 -36.59375 C 19.640625 -40.308594 6.164062 -41.90625 2.398438 -36.824219 C 0.570312 -34.367188 -0.0585938 -30.65625 2.796875 -28.773438 C 5.765625 -26.777344 11.875 -27.917969 15.1875 -28.089844 C 11.074219 -22.324219 -4.96875 -7.136719 7.820312 -1.199219 C 12.445312 0.96875 20.4375 -0.285156 25.292969 -1.140625 Z M 25.292969 -1.140625 "/></g></g></g><g fill="#ffffff" fill-opacity="1"><g transform="translate(308.36355, 220.734052)"><g><path d="M 22.09375 -0.914062 C 25.804688 -2.96875 25.917969 -8.734375 22.4375 -11.074219 C 19.925781 -12.730469 17.296875 -12.160156 14.5 -12.675781 C 12.390625 -13.074219 12.789062 -12.101562 12.445312 -14.5 C 12.273438 -15.757812 12.617188 -17.242188 12.675781 -18.496094 C 12.84375 -23.578125 13.703125 -29.859375 12.046875 -34.824219 C 10.734375 -38.878906 6.507812 -40.363281 3.539062 -36.882812 C 0.742188 -33.570312 0.96875 -27.804688 0.96875 -23.808594 C 0.914062 -19.070312 0.683594 -13.929688 1.140625 -9.191406 C 1.65625 -3.9375 5.023438 -1.769531 9.992188 -0.96875 C 13.417969 -0.398438 18.898438 0.855469 22.09375 -0.914062 Z M 22.09375 -0.914062 "/></g></g></g><g fill="#ffffff" fill-opacity="1"><g transform="translate(341.015775, 220.734052)"><g><path d="M 9.476562 -0.113281 C 13.015625 -0.285156 16.554688 -0.226562 20.039062 -0.398438 C 22.949219 -0.570312 25.121094 -0.96875 26.261719 -3.824219 C 26.945312 -5.710938 27.347656 -9.132812 25.460938 -10.5625 C 23.351562 -12.101562 20.039062 -11.417969 17.640625 -11.53125 C 15.472656 -11.648438 9.875 -13.417969 13.132812 -16.441406 C 15.070312 -18.269531 18.097656 -16.101562 20.382812 -16.726562 C 22.894531 -17.46875 23.464844 -20.324219 23.179688 -22.664062 C 23.007812 -24.664062 22.324219 -25.804688 20.382812 -26.546875 C 18.496094 -27.234375 14.558594 -25.976562 13.074219 -27.0625 C 11.074219 -28.488281 12.902344 -31.171875 14.328125 -31.457031 C 16.5 -31.972656 18.839844 -30.488281 21.125 -31.398438 C 23.121094 -32.199219 24.148438 -34.082031 23.863281 -36.253906 C 23.464844 -39.277344 20.953125 -39.792969 18.328125 -40.191406 C 14.445312 -40.761719 4.167969 -42.703125 2.453125 -37.910156 C 1.710938 -35.851562 2.113281 -33 2 -30.886719 C 1.882812 -27.0625 1.710938 -23.234375 1.542969 -19.410156 C 1.371094 -16.15625 1.257812 -12.902344 1.085938 -9.648438 C 0.96875 -7.078125 0.226562 -3.367188 2.285156 -1.371094 C 4.167969 0.457031 7.195312 -0.0585938 9.476562 -0.113281 Z M 9.476562 -0.113281 "/></g></g></g><g fill="#ffffff" fill-opacity="1"><g transform="translate(61.17772, 263.37623)"><g><path d="M 5.742188 -18.605469 C 5.742188 -19.054688 5.53125 -19.402344 5.222656 -19.710938 C 4.773438 -19.882812 4.425781 -20.09375 3.941406 -20.09375 C 3.492188 -20.09375 3.007812 -19.917969 2.699219 -19.78125 C 2.28125 -19.503906 2.109375 -19.160156 2.109375 -18.707031 L 2.109375 -14.039062 C 2.074219 -13.175781 2.039062 -12.347656 2.039062 -11.515625 L 2.039062 -2.246094 C 2.039062 -1.589844 2.074219 -0.96875 2.109375 -0.378906 C 2.109375 0.207031 2.246094 0.65625 2.699219 0.828125 C 3.007812 1.140625 3.492188 1.246094 3.941406 1.140625 C 4.355469 1.140625 4.773438 1.003906 5.222656 0.691406 C 5.53125 0.554688 5.742188 0.136719 5.742188 -0.3125 L 5.742188 -5.429688 L 8.265625 -8.058594 C 8.578125 -7.503906 8.957031 -6.917969 9.542969 -6.292969 C 9.996094 -5.53125 10.511719 -4.910156 11.136719 -4.148438 C 11.621094 -3.390625 12.171875 -2.59375 12.796875 -1.832031 C 13.3125 -1.003906 13.832031 -0.3125 14.457031 0.414062 C 14.628906 0.691406 14.972656 0.828125 15.457031 0.828125 C 15.804688 0.828125 16.183594 0.828125 16.597656 0.589844 C 16.910156 0.378906 17.117188 0.105469 17.257812 -0.3125 C 17.429688 -0.621094 17.359375 -0.96875 17.050781 -1.417969 L 16.289062 -2.457031 C 16.011719 -2.730469 15.769531 -3.214844 15.457031 -3.664062 C 15.179688 -4.082031 14.835938 -4.460938 14.523438 -4.910156 C 14.144531 -5.359375 13.902344 -5.773438 13.589844 -6.226562 L 13.105469 -6.847656 L 12.65625 -7.433594 C 12.347656 -7.882812 12.105469 -8.265625 11.828125 -8.714844 C 11.515625 -9.027344 11.238281 -9.40625 11.066406 -9.71875 C 10.789062 -10.027344 10.652344 -10.304688 10.511719 -10.582031 C 10.753906 -10.894531 10.960938 -11.136719 11.238281 -11.410156 L 12.070312 -12.207031 C 12.207031 -12.378906 12.449219 -12.65625 12.726562 -12.898438 C 12.933594 -13.175781 13.175781 -13.417969 13.488281 -13.730469 L 14.214844 -14.488281 C 14.457031 -14.765625 14.765625 -15.042969 15.078125 -15.320312 L 15.90625 -16.21875 C 16.21875 -16.53125 16.53125 -16.839844 16.839844 -17.222656 C 17.117188 -17.566406 17.1875 -18.015625 17.1875 -18.464844 C 17.050781 -18.8125 16.910156 -19.226562 16.597656 -19.503906 C 16.289062 -19.675781 15.875 -19.816406 15.527344 -19.917969 C 15.078125 -19.917969 14.628906 -19.78125 14.316406 -19.433594 L 13.453125 -18.535156 C 13.140625 -18.226562 12.761719 -17.878906 12.414062 -17.53125 C 12 -17.082031 11.621094 -16.667969 11.203125 -16.253906 L 9.996094 -14.972656 C 9.542969 -14.523438 9.164062 -14.039062 8.785156 -13.589844 C 8.367188 -13.175781 7.988281 -12.761719 7.644531 -12.347656 L 5.742188 -10.304688 C 5.707031 -10.582031 5.636719 -10.894531 5.636719 -11.136719 L 5.636719 -14.90625 C 5.636719 -15.25 5.707031 -15.664062 5.742188 -16.082031 Z M 5.742188 -18.605469 "/></g></g></g><g fill="#ffffff" fill-opacity="1"><g transform="translate(79.781553, 263.37623)"><g><path d="M 7.332031 -11.480469 C 6.121094 -11.480469 5.152344 -11.273438 4.355469 -10.824219 C 3.5625 -10.375 2.941406 -9.820312 2.457031 -9.199219 C 1.972656 -8.507812 1.660156 -7.78125 1.488281 -7.054688 C 1.210938 -6.191406 1.175781 -5.5 1.347656 -4.773438 C 1.488281 -3.320312 2.074219 -2.214844 3.179688 -1.488281 C 4.253906 -0.691406 5.53125 -0.3125 7.054688 -0.3125 C 7.644531 -0.3125 8.367188 -0.347656 9.164062 -0.621094 C 9.820312 -0.761719 10.511719 -1.039062 11.136719 -1.488281 C 11.757812 -1.9375 12.242188 -2.421875 12.726562 -3.148438 C 13.070312 -3.769531 13.3125 -4.53125 13.417969 -5.566406 C 13.417969 -6.15625 13.28125 -6.847656 13.105469 -7.609375 C 12.796875 -8.230469 12.449219 -8.921875 12 -9.511719 C 11.515625 -10.097656 10.929688 -10.511719 10.167969 -10.960938 C 9.269531 -11.273438 8.402344 -11.480469 7.332031 -11.480469 Z M 9.785156 -5.566406 C 9.648438 -4.980469 9.40625 -4.496094 9.058594 -4.046875 C 8.644531 -3.492188 8.09375 -3.214844 7.332031 -3.214844 C 6.570312 -3.113281 6.015625 -3.390625 5.53125 -3.839844 C 4.945312 -4.117188 4.667969 -4.703125 4.667969 -5.429688 C 4.53125 -6.328125 4.738281 -7.089844 5.464844 -7.675781 C 6.050781 -8.125 6.640625 -8.335938 7.402344 -8.335938 C 7.882812 -8.335938 8.265625 -8.195312 8.578125 -8.058594 C 8.886719 -7.746094 9.027344 -7.539062 9.300781 -7.226562 C 9.335938 -7.125 9.371094 -6.949219 9.511719 -6.8125 L 9.578125 -6.605469 L 9.683594 -6.363281 L 9.683594 -6.15625 C 9.683594 -6.085938 9.683594 -5.984375 9.71875 -5.914062 C 9.71875 -5.773438 9.785156 -5.707031 9.785156 -5.566406 Z M 9.785156 -5.566406 "/></g></g></g><g fill="#ffffff" fill-opacity="1"><g transform="translate(94.443315, 263.37623)"><g><path d="M 6.742188 -12.554688 C 5.808594 -12.554688 5.082031 -12.414062 4.460938 -12.105469 C 3.875 -11.828125 3.285156 -11.480469 2.941406 -11.03125 C 2.523438 -10.476562 2.351562 -10.027344 2.214844 -9.441406 C 2.039062 -8.714844 1.972656 -8.125 1.972656 -7.539062 C 1.9375 -7.191406 1.902344 -6.882812 1.902344 -6.605469 L 1.902344 -3.699219 C 1.902344 -3.527344 1.9375 -3.355469 1.972656 -3.148438 L 1.972656 -1.765625 C 1.972656 -1.3125 2.039062 -0.96875 2.457031 -0.761719 C 2.765625 -0.484375 3.179688 -0.3125 3.804688 -0.3125 C 4.117188 -0.3125 4.53125 -0.484375 4.980469 -0.761719 C 5.292969 -0.96875 5.53125 -1.246094 5.53125 -1.695312 L 5.53125 -7.296875 C 5.53125 -7.882812 5.566406 -8.367188 5.878906 -8.820312 C 6.050781 -9.269531 6.5 -9.511719 7.402344 -9.511719 L 9.371094 -9.511719 C 9.855469 -9.511719 10.167969 -9.648438 10.582031 -9.960938 C 10.894531 -10.132812 11.066406 -10.476562 11.066406 -11.03125 C 11.066406 -11.34375 10.894531 -11.621094 10.582031 -12.035156 C 10.304688 -12.347656 9.855469 -12.554688 9.371094 -12.554688 Z M 6.742188 -12.554688 "/></g></g></g><g fill="#ffffff" fill-opacity="1"><g transform="translate(106.442439, 263.37623)"><g><path d="M 13.347656 -8.058594 C 13.347656 -8.644531 13.140625 -9.164062 12.96875 -9.890625 C 12.65625 -10.445312 12.3125 -10.929688 11.828125 -11.480469 C 11.378906 -11.929688 10.789062 -12.242188 10.167969 -12.65625 C 9.371094 -12.933594 8.644531 -13.105469 7.882812 -13.105469 C 6.050781 -13.105469 4.53125 -12.621094 3.320312 -11.722656 C 2.039062 -10.652344 1.347656 -9.128906 1.347656 -7.054688 C 1.210938 -6.292969 1.3125 -5.636719 1.589844 -4.980469 C 1.730469 -4.253906 1.9375 -3.597656 2.351562 -3.007812 C 2.664062 -2.421875 3.214844 -1.9375 3.941406 -1.488281 C 4.53125 -1.039062 5.257812 -0.65625 6.191406 -0.484375 C 7.125 -0.207031 8.023438 -0.242188 9.058594 -0.378906 C 9.996094 -0.414062 10.824219 -0.65625 11.445312 -0.96875 C 11.757812 -1.003906 11.894531 -1.246094 12.171875 -1.695312 C 12.347656 -2.003906 12.242188 -2.351562 12.105469 -2.765625 C 11.929688 -3.042969 11.792969 -3.214844 11.6875 -3.390625 C 11.515625 -3.527344 11.378906 -3.597656 11.203125 -3.597656 C 10.789062 -3.597656 10.410156 -3.421875 9.925781 -3.214844 C 9.613281 -3.078125 9.234375 -3.007812 8.886719 -3.007812 C 8.402344 -2.871094 7.917969 -2.941406 7.296875 -3.078125 C 6.847656 -3.148438 6.5 -3.285156 6.191406 -3.421875 C 5.878906 -3.5625 5.636719 -3.769531 5.464844 -3.976562 C 4.980469 -4.289062 4.773438 -4.703125 4.773438 -5.152344 L 9.925781 -5.152344 C 11.273438 -5.152344 12.171875 -5.359375 12.65625 -6.085938 C 13.105469 -6.675781 13.347656 -7.296875 13.347656 -8.058594 Z M 4.597656 -7.746094 C 4.496094 -7.882812 4.53125 -8.125 4.667969 -8.4375 C 4.738281 -8.714844 4.875 -8.992188 5.152344 -9.269531 L 5.292969 -9.476562 L 5.53125 -9.683594 L 6.050781 -10.097656 C 6.363281 -10.234375 6.777344 -10.375 7.402344 -10.375 C 8.160156 -10.375 8.75 -10.234375 9.234375 -9.960938 C 9.578125 -9.542969 9.925781 -9.128906 10.097656 -8.644531 C 10.097656 -8.195312 10.027344 -7.953125 9.996094 -7.882812 C 9.855469 -7.746094 9.578125 -7.746094 9.371094 -7.746094 Z M 4.597656 -7.746094 "/></g></g></g><g fill="#ffffff" fill-opacity="1"><g transform="translate(121.035043, 263.37623)"><g><path d="M 14.699219 -2.214844 C 14.59375 -2.421875 14.523438 -2.59375 14.457031 -2.765625 C 14.351562 -2.972656 14.316406 -3.148438 14.316406 -3.320312 C 14.144531 -3.492188 14.039062 -3.769531 14.003906 -4.046875 C 13.902344 -4.21875 13.796875 -4.53125 13.761719 -4.839844 C 13.730469 -4.875 13.730469 -4.945312 13.695312 -5.015625 L 13.625 -5.257812 C 13.488281 -5.429688 13.453125 -5.566406 13.417969 -5.84375 C 12.96875 -7.332031 12.171875 -8.609375 11.203125 -9.648438 C 10.167969 -10.546875 8.886719 -11.101562 7.191406 -11.101562 C 6.257812 -11.101562 5.53125 -10.960938 4.773438 -10.652344 C 3.976562 -10.375 3.285156 -9.925781 2.765625 -9.441406 C 2.214844 -8.820312 1.796875 -8.265625 1.488281 -7.539062 C 1.175781 -6.742188 1.039062 -5.878906 1.175781 -4.980469 C 1.175781 -4.082031 1.417969 -3.320312 1.902344 -2.699219 C 2.246094 -2.074219 2.699219 -1.554688 3.320312 -1.105469 C 3.941406 -0.691406 4.496094 -0.484375 5.222656 -0.3125 C 5.808594 -0.0703125 6.5 -0.0351562 7.125 -0.0351562 C 7.574219 -0.0351562 8.023438 -0.105469 8.472656 -0.242188 C 8.957031 -0.378906 9.300781 -0.519531 9.785156 -0.761719 C 10.132812 -0.898438 10.511719 -1.105469 10.824219 -1.417969 C 10.996094 -1.554688 11.203125 -1.730469 11.378906 -2.003906 L 11.585938 -1.417969 C 11.757812 -0.96875 11.894531 -0.621094 12.347656 -0.484375 C 12.65625 -0.171875 13.140625 -0.171875 13.761719 -0.3125 C 14.074219 -0.347656 14.316406 -0.554688 14.628906 -0.96875 C 14.765625 -1.246094 14.871094 -1.660156 14.699219 -2.214844 Z M 7.054688 -8.125 C 7.710938 -8.125 8.300781 -7.851562 8.886719 -7.539062 C 9.300781 -7.089844 9.511719 -6.46875 9.613281 -5.566406 C 9.613281 -4.875 9.335938 -4.324219 8.886719 -3.839844 C 8.300781 -3.214844 7.710938 -2.941406 7.054688 -2.941406 C 6.257812 -2.941406 5.707031 -3.148438 5.222656 -3.597656 C 4.773438 -4.046875 4.460938 -4.566406 4.460938 -5.429688 C 4.289062 -6.191406 4.53125 -6.8125 5.152344 -7.367188 C 5.601562 -7.816406 6.257812 -8.125 7.054688 -8.125 Z M 7.054688 -8.125 "/></g></g></g><g fill="#ffffff" fill-opacity="1"><g transform="translate(136.699608, 263.37623)"><g><path d="M 14.144531 -6.605469 C 14.003906 -8.367188 13.488281 -9.960938 12.414062 -11.101562 C 11.378906 -12.171875 9.855469 -12.796875 8.023438 -12.796875 C 6.363281 -12.796875 4.875 -12.3125 3.804688 -11.410156 C 2.558594 -10.410156 1.902344 -8.957031 1.902344 -6.742188 C 1.832031 -6.257812 1.796875 -5.773438 1.796875 -5.359375 L 1.796875 -2.941406 C 1.796875 -2.523438 1.832031 -2.144531 1.902344 -1.765625 C 1.902344 -1.210938 2.039062 -0.863281 2.351562 -0.691406 C 2.523438 -0.378906 2.972656 -0.3125 3.699219 -0.3125 C 4.183594 -0.3125 4.632812 -0.378906 5.082031 -0.691406 C 5.394531 -0.863281 5.53125 -1.210938 5.53125 -1.765625 L 5.53125 -6.605469 C 5.53125 -7.746094 5.742188 -8.472656 6.191406 -8.921875 C 6.675781 -9.234375 7.261719 -9.511719 8.023438 -9.511719 C 8.644531 -9.511719 9.164062 -9.234375 9.785156 -8.921875 C 10.234375 -8.507812 10.511719 -7.644531 10.511719 -6.433594 L 10.511719 -1.695312 C 10.511719 -1.417969 10.511719 -1.246094 10.652344 -1.105469 C 10.71875 -0.828125 10.859375 -0.726562 11.136719 -0.691406 C 11.273438 -0.554688 11.410156 -0.484375 11.6875 -0.484375 C 11.828125 -0.347656 12 -0.3125 12.242188 -0.3125 C 12.726562 -0.3125 13.105469 -0.378906 13.589844 -0.691406 C 13.902344 -0.863281 14.144531 -1.210938 14.144531 -1.765625 Z M 14.144531 -6.605469 "/></g></g></g><g fill="#ffffff" fill-opacity="1"><g transform="translate(152.882872, 263.37623)"><g/></g></g><g fill="#ffffff" fill-opacity="1"><g transform="translate(161.87357, 263.37623)"><g><path d="M 16.289062 -3.769531 C 16.289062 -4.910156 16.082031 -5.878906 15.769531 -6.882812 C 15.285156 -7.746094 14.730469 -8.230469 14.074219 -8.507812 C 14.871094 -8.785156 15.390625 -9.371094 15.976562 -10.375 C 16.460938 -11.273438 16.773438 -12.3125 16.773438 -13.382812 C 16.773438 -15.007812 16.253906 -16.390625 15.179688 -17.464844 C 13.972656 -18.464844 12.378906 -18.984375 10.097656 -18.984375 L 6.433594 -18.984375 C 5.152344 -18.984375 4.21875 -18.742188 3.699219 -18.398438 C 3.078125 -17.949219 2.765625 -17.117188 2.765625 -16.082031 C 2.730469 -15.632812 2.699219 -15.113281 2.699219 -14.488281 L 2.699219 -5.636719 C 2.699219 -4.910156 2.730469 -4.253906 2.765625 -3.597656 L 2.765625 -0.96875 C 2.765625 -0.484375 2.90625 -0.0703125 3.320312 0.136719 C 3.632812 0.414062 4.046875 0.554688 4.53125 0.414062 C 4.875 0.414062 5.257812 0.347656 5.742188 0.0703125 C 6.050781 -0.136719 6.257812 -0.519531 6.257812 -0.96875 L 6.257812 -7.539062 L 9.542969 -7.539062 C 10.203125 -7.539062 10.859375 -7.261719 11.585938 -6.8125 C 12.207031 -6.257812 12.65625 -5.671875 12.796875 -4.773438 L 12.796875 -4.496094 C 12.796875 -4.425781 12.796875 -4.355469 12.828125 -4.289062 C 12.828125 -4.082031 12.863281 -3.976562 12.863281 -3.839844 L 12.863281 -0.898438 C 12.863281 -0.3125 13.003906 0.136719 13.417969 0.277344 C 13.730469 0.589844 14.074219 0.621094 14.558594 0.621094 C 14.90625 0.621094 15.285156 0.519531 15.769531 0.207031 C 16.082031 0.0351562 16.289062 -0.378906 16.289062 -0.828125 Z M 13.347656 -13.3125 C 13.347656 -12.761719 13.175781 -12.347656 13.039062 -12.035156 C 12.726562 -11.621094 12.484375 -11.308594 12.171875 -11.101562 C 11.828125 -10.824219 11.445312 -10.617188 11.136719 -10.582031 C 10.71875 -10.445312 10.476562 -10.375 10.167969 -10.375 L 6.257812 -10.375 L 6.257812 -15.042969 C 6.257812 -15.355469 6.398438 -15.699219 6.8125 -15.839844 C 7.125 -16.011719 7.433594 -16.082031 7.882812 -16.082031 L 10.167969 -16.082031 C 10.929688 -16.082031 11.6875 -15.839844 12.414062 -15.421875 C 13.039062 -14.835938 13.347656 -14.214844 13.347656 -13.3125 Z M 13.347656 -13.3125 "/></g></g></g><g fill="#ffffff" fill-opacity="1"><g transform="translate(180.961524, 263.37623)"><g><path d="M 13.347656 -8.058594 C 13.347656 -8.644531 13.140625 -9.164062 12.96875 -9.890625 C 12.65625 -10.445312 12.3125 -10.929688 11.828125 -11.480469 C 11.378906 -11.929688 10.789062 -12.242188 10.167969 -12.65625 C 9.371094 -12.933594 8.644531 -13.105469 7.882812 -13.105469 C 6.050781 -13.105469 4.53125 -12.621094 3.320312 -11.722656 C 2.039062 -10.652344 1.347656 -9.128906 1.347656 -7.054688 C 1.210938 -6.292969 1.3125 -5.636719 1.589844 -4.980469 C 1.730469 -4.253906 1.9375 -3.597656 2.351562 -3.007812 C 2.664062 -2.421875 3.214844 -1.9375 3.941406 -1.488281 C 4.53125 -1.039062 5.257812 -0.65625 6.191406 -0.484375 C 7.125 -0.207031 8.023438 -0.242188 9.058594 -0.378906 C 9.996094 -0.414062 10.824219 -0.65625 11.445312 -0.96875 C 11.757812 -1.003906 11.894531 -1.246094 12.171875 -1.695312 C 12.347656 -2.003906 12.242188 -2.351562 12.105469 -2.765625 C 11.929688 -3.042969 11.792969 -3.214844 11.6875 -3.390625 C 11.515625 -3.527344 11.378906 -3.597656 11.203125 -3.597656 C 10.789062 -3.597656 10.410156 -3.421875 9.925781 -3.214844 C 9.613281 -3.078125 9.234375 -3.007812 8.886719 -3.007812 C 8.402344 -2.871094 7.917969 -2.941406 7.296875 -3.078125 C 6.847656 -3.148438 6.5 -3.285156 6.191406 -3.421875 C 5.878906 -3.5625 5.636719 -3.769531 5.464844 -3.976562 C 4.980469 -4.289062 4.773438 -4.703125 4.773438 -5.152344 L 9.925781 -5.152344 C 11.273438 -5.152344 12.171875 -5.359375 12.65625 -6.085938 C 13.105469 -6.675781 13.347656 -7.296875 13.347656 -8.058594 Z M 4.597656 -7.746094 C 4.496094 -7.882812 4.53125 -8.125 4.667969 -8.4375 C 4.738281 -8.714844 4.875 -8.992188 5.152344 -9.269531 L 5.292969 -9.476562 L 5.53125 -9.683594 L 6.050781 -10.097656 C 6.363281 -10.234375 6.777344 -10.375 7.402344 -10.375 C 8.160156 -10.375 8.75 -10.234375 9.234375 -9.960938 C 9.578125 -9.542969 9.925781 -9.128906 10.097656 -8.644531 C 10.097656 -8.195312 10.027344 -7.953125 9.996094 -7.882812 C 9.855469 -7.746094 9.578125 -7.746094 9.371094 -7.746094 Z M 4.597656 -7.746094 "/></g></g></g><g fill="#ffffff" fill-opacity="1"><g transform="translate(195.554128, 263.37623)"><g><path d="M 10.234375 -13.589844 C 9.925781 -13.695312 9.578125 -13.796875 9.269531 -13.832031 C 8.921875 -13.9375 8.644531 -13.972656 8.335938 -14.109375 C 7.917969 -14.109375 7.609375 -14.179688 7.296875 -14.179688 C 6.984375 -14.214844 6.707031 -14.246094 6.433594 -14.246094 C 4.910156 -14.246094 3.664062 -13.902344 2.871094 -13.3125 C 1.972656 -12.554688 1.417969 -11.621094 1.28125 -10.582031 C 1.105469 -9.648438 1.347656 -8.785156 1.796875 -8.058594 C 2.144531 -7.160156 2.941406 -6.675781 4.011719 -6.363281 C 4.289062 -6.226562 4.597656 -6.15625 4.910156 -6.15625 C 5.117188 -6.015625 5.359375 -5.984375 5.636719 -5.984375 C 5.742188 -5.949219 5.808594 -5.914062 5.914062 -5.914062 L 6.363281 -5.914062 C 6.398438 -5.914062 6.5 -5.878906 6.675781 -5.878906 C 6.742188 -5.84375 6.8125 -5.84375 6.882812 -5.84375 L 7.125 -5.84375 C 7.433594 -5.742188 7.78125 -5.707031 8.09375 -5.671875 L 8.886719 -5.5 C 9.199219 -5.257812 9.476562 -4.875 9.476562 -4.390625 C 9.476562 -3.769531 9.09375 -3.355469 8.472656 -3.320312 C 7.746094 -3.148438 7.160156 -3.042969 6.675781 -3.148438 L 6.433594 -3.148438 C 6.363281 -3.148438 6.328125 -3.179688 6.257812 -3.214844 L 6.050781 -3.214844 C 5.949219 -3.214844 5.914062 -3.285156 5.878906 -3.320312 L 5.707031 -3.320312 C 5.636719 -3.320312 5.636719 -3.355469 5.601562 -3.390625 C 5.464844 -3.390625 5.394531 -3.457031 5.222656 -3.597656 C 4.773438 -3.804688 4.289062 -3.976562 3.941406 -3.976562 C 3.492188 -3.875 3.078125 -3.632812 2.765625 -3.320312 C 2.457031 -2.90625 2.316406 -2.558594 2.457031 -2.214844 C 2.523438 -1.765625 2.941406 -1.3125 3.5625 -1.039062 C 3.875 -0.828125 4.253906 -0.65625 4.839844 -0.621094 C 5.292969 -0.484375 5.808594 -0.378906 6.433594 -0.378906 C 8.578125 -0.242188 10.132812 -0.589844 11.203125 -1.488281 C 12.3125 -2.214844 12.796875 -3.320312 12.796875 -4.703125 C 12.65625 -5.914062 12.207031 -6.847656 11.445312 -7.433594 C 10.546875 -8.058594 9.542969 -8.335938 8.160156 -8.507812 C 6.8125 -8.542969 5.914062 -8.644531 5.292969 -8.921875 C 4.667969 -9.058594 4.355469 -9.511719 4.53125 -10.234375 C 4.53125 -10.6875 4.773438 -11.066406 5.222656 -11.34375 C 5.53125 -11.480469 5.914062 -11.550781 6.5 -11.550781 L 6.984375 -11.550781 C 7.125 -11.445312 7.332031 -11.410156 7.644531 -11.410156 C 7.816406 -11.308594 8.160156 -11.273438 8.472656 -11.273438 C 8.679688 -11.101562 8.921875 -11.03125 9.234375 -11.03125 C 9.578125 -10.894531 9.996094 -10.929688 10.304688 -11.171875 C 10.582031 -11.34375 10.824219 -11.550781 10.960938 -11.964844 C 10.996094 -12.277344 10.996094 -12.519531 10.960938 -12.933594 C 10.824219 -13.246094 10.546875 -13.417969 10.234375 -13.589844 Z M 10.234375 -13.589844 "/></g></g></g><g fill="#ffffff" fill-opacity="1"><g transform="translate(209.385981, 263.37623)"><g><path d="M 11.445312 -0.378906 C 11.894531 -0.378906 12.3125 -0.621094 12.726562 -0.898438 C 13.039062 -1.070312 13.175781 -1.347656 13.175781 -1.765625 C 13.175781 -1.832031 13.175781 -1.9375 13.140625 -2.039062 L 13.070312 -2.351562 C 13.039062 -2.523438 12.933594 -2.664062 12.863281 -2.941406 C 12.621094 -3.214844 12.3125 -3.457031 11.6875 -3.457031 L 8.644531 -3.457031 C 8.023438 -3.457031 7.675781 -3.5625 7.644531 -3.839844 C 7.46875 -3.976562 7.402344 -4.355469 7.402344 -5.050781 L 7.402344 -8.4375 L 10.511719 -8.4375 C 10.824219 -8.4375 11.203125 -8.542969 11.515625 -8.820312 C 11.828125 -9.128906 12 -9.511719 12 -9.960938 C 12 -10.304688 11.792969 -10.652344 11.585938 -10.960938 C 11.273438 -11.273438 10.929688 -11.410156 10.476562 -11.410156 L 7.402344 -11.410156 L 7.402344 -17.222656 C 7.402344 -17.53125 7.296875 -17.878906 6.984375 -18.15625 C 6.675781 -18.464844 6.15625 -18.605469 5.636719 -18.605469 C 5.082031 -18.605469 4.566406 -18.464844 4.355469 -18.15625 C 4.046875 -17.914062 3.941406 -17.601562 3.941406 -17.324219 L 3.941406 -11.410156 L 1.589844 -11.410156 C 1.140625 -11.410156 0.898438 -11.171875 0.761719 -10.894531 C 0.484375 -10.476562 0.449219 -10.167969 0.449219 -9.890625 C 0.449219 -9.476562 0.484375 -9.199219 0.796875 -8.921875 C 1.003906 -8.578125 1.3125 -8.4375 1.730469 -8.4375 L 3.941406 -8.4375 L 3.941406 -4.53125 C 3.941406 -3.078125 4.289062 -2.074219 5.082031 -1.488281 C 5.742188 -0.726562 6.742188 -0.378906 8.09375 -0.378906 C 8.402344 -0.347656 8.679688 -0.3125 8.957031 -0.3125 L 10.410156 -0.3125 C 10.71875 -0.3125 11.066406 -0.347656 11.445312 -0.378906 Z M 11.445312 -0.378906 "/></g></g></g><g fill="#ffffff" fill-opacity="1"><g transform="translate(223.771113, 263.37623)"><g><path d="M 14.699219 -2.214844 C 14.59375 -2.421875 14.523438 -2.59375 14.457031 -2.765625 C 14.351562 -2.972656 14.316406 -3.148438 14.316406 -3.320312 C 14.144531 -3.492188 14.039062 -3.769531 14.003906 -4.046875 C 13.902344 -4.21875 13.796875 -4.53125 13.761719 -4.839844 C 13.730469 -4.875 13.730469 -4.945312 13.695312 -5.015625 L 13.625 -5.257812 C 13.488281 -5.429688 13.453125 -5.566406 13.417969 -5.84375 C 12.96875 -7.332031 12.171875 -8.609375 11.203125 -9.648438 C 10.167969 -10.546875 8.886719 -11.101562 7.191406 -11.101562 C 6.257812 -11.101562 5.53125 -10.960938 4.773438 -10.652344 C 3.976562 -10.375 3.285156 -9.925781 2.765625 -9.441406 C 2.214844 -8.820312 1.796875 -8.265625 1.488281 -7.539062 C 1.175781 -6.742188 1.039062 -5.878906 1.175781 -4.980469 C 1.175781 -4.082031 1.417969 -3.320312 1.902344 -2.699219 C 2.246094 -2.074219 2.699219 -1.554688 3.320312 -1.105469 C 3.941406 -0.691406 4.496094 -0.484375 5.222656 -0.3125 C 5.808594 -0.0703125 6.5 -0.0351562 7.125 -0.0351562 C 7.574219 -0.0351562 8.023438 -0.105469 8.472656 -0.242188 C 8.957031 -0.378906 9.300781 -0.519531 9.785156 -0.761719 C 10.132812 -0.898438 10.511719 -1.105469 10.824219 -1.417969 C 10.996094 -1.554688 11.203125 -1.730469 11.378906 -2.003906 L 11.585938 -1.417969 C 11.757812 -0.96875 11.894531 -0.621094 12.347656 -0.484375 C 12.65625 -0.171875 13.140625 -0.171875 13.761719 -0.3125 C 14.074219 -0.347656 14.316406 -0.554688 14.628906 -0.96875 C 14.765625 -1.246094 14.871094 -1.660156 14.699219 -2.214844 Z M 7.054688 -8.125 C 7.710938 -8.125 8.300781 -7.851562 8.886719 -7.539062 C 9.300781 -7.089844 9.511719 -6.46875 9.613281 -5.566406 C 9.613281 -4.875 9.335938 -4.324219 8.886719 -3.839844 C 8.300781 -3.214844 7.710938 -2.941406 7.054688 -2.941406 C 6.257812 -2.941406 5.707031 -3.148438 5.222656 -3.597656 C 4.773438 -4.046875 4.460938 -4.566406 4.460938 -5.429688 C 4.289062 -6.191406 4.53125 -6.8125 5.152344 -7.367188 C 5.601562 -7.816406 6.257812 -8.125 7.054688 -8.125 Z M 7.054688 -8.125 "/></g></g></g><g fill="#ffffff" fill-opacity="1"><g transform="translate(239.435677, 263.37623)"><g><path d="M 14.386719 -12.035156 C 14.386719 -12.378906 14.144531 -12.796875 13.832031 -13.105469 C 13.417969 -13.382812 13.003906 -13.488281 12.65625 -13.488281 C 12.171875 -13.488281 11.757812 -13.347656 11.445312 -13.175781 C 10.996094 -12.863281 10.894531 -12.449219 10.894531 -12.105469 L 10.894531 -8.992188 C 10.859375 -8.578125 10.824219 -8.160156 10.824219 -7.746094 L 10.824219 -6.605469 C 10.652344 -5.292969 10.339844 -4.390625 9.855469 -4.046875 C 9.234375 -3.597656 8.714844 -3.457031 8.09375 -3.457031 C 7.332031 -3.457031 6.742188 -3.632812 6.257812 -4.082031 C 5.636719 -4.425781 5.394531 -5.292969 5.394531 -6.5 C 5.359375 -6.847656 5.292969 -7.226562 5.292969 -7.644531 L 5.292969 -10.582031 C 5.292969 -11.03125 5.359375 -11.480469 5.394531 -11.894531 C 5.394531 -12.347656 5.152344 -12.691406 4.839844 -13.105469 C 4.425781 -13.382812 4.117188 -13.488281 3.632812 -13.488281 C 3.042969 -13.488281 2.664062 -13.3125 2.351562 -13.003906 C 1.9375 -12.621094 1.796875 -12.242188 1.796875 -11.894531 C 1.765625 -11.621094 1.730469 -11.410156 1.730469 -11.136719 L 1.730469 -8.367188 C 1.730469 -8.195312 1.765625 -7.988281 1.796875 -7.746094 L 1.796875 -6.292969 C 1.796875 -5.222656 1.972656 -4.289062 2.28125 -3.527344 C 2.558594 -2.628906 3.078125 -2.003906 3.875 -1.554688 C 4.289062 -1.105469 4.839844 -0.761719 5.742188 -0.621094 C 6.5 -0.347656 7.332031 -0.3125 8.09375 -0.3125 C 8.75 -0.3125 9.476562 -0.347656 10.234375 -0.621094 C 10.859375 -0.761719 11.550781 -1.105469 12.171875 -1.554688 C 12.796875 -2.003906 13.3125 -2.628906 13.761719 -3.527344 C 14.074219 -4.253906 14.28125 -5.222656 14.386719 -6.292969 Z M 14.386719 -12.035156 "/></g></g></g><g fill="#ffffff" fill-opacity="1"><g transform="translate(255.549784, 263.37623)"><g><path d="M 6.742188 -12.554688 C 5.808594 -12.554688 5.082031 -12.414062 4.460938 -12.105469 C 3.875 -11.828125 3.285156 -11.480469 2.941406 -11.03125 C 2.523438 -10.476562 2.351562 -10.027344 2.214844 -9.441406 C 2.039062 -8.714844 1.972656 -8.125 1.972656 -7.539062 C 1.9375 -7.191406 1.902344 -6.882812 1.902344 -6.605469 L 1.902344 -3.699219 C 1.902344 -3.527344 1.9375 -3.355469 1.972656 -3.148438 L 1.972656 -1.765625 C 1.972656 -1.3125 2.039062 -0.96875 2.457031 -0.761719 C 2.765625 -0.484375 3.179688 -0.3125 3.804688 -0.3125 C 4.117188 -0.3125 4.53125 -0.484375 4.980469 -0.761719 C 5.292969 -0.96875 5.53125 -1.246094 5.53125 -1.695312 L 5.53125 -7.296875 C 5.53125 -7.882812 5.566406 -8.367188 5.878906 -8.820312 C 6.050781 -9.269531 6.5 -9.511719 7.402344 -9.511719 L 9.371094 -9.511719 C 9.855469 -9.511719 10.167969 -9.648438 10.582031 -9.960938 C 10.894531 -10.132812 11.066406 -10.476562 11.066406 -11.03125 C 11.066406 -11.34375 10.894531 -11.621094 10.582031 -12.035156 C 10.304688 -12.347656 9.855469 -12.554688 9.371094 -12.554688 Z M 6.742188 -12.554688 "/></g></g></g><g fill="#ffffff" fill-opacity="1"><g transform="translate(267.548908, 263.37623)"><g><path d="M 14.699219 -2.214844 C 14.59375 -2.421875 14.523438 -2.59375 14.457031 -2.765625 C 14.351562 -2.972656 14.316406 -3.148438 14.316406 -3.320312 C 14.144531 -3.492188 14.039062 -3.769531 14.003906 -4.046875 C 13.902344 -4.21875 13.796875 -4.53125 13.761719 -4.839844 C 13.730469 -4.875 13.730469 -4.945312 13.695312 -5.015625 L 13.625 -5.257812 C 13.488281 -5.429688 13.453125 -5.566406 13.417969 -5.84375 C 12.96875 -7.332031 12.171875 -8.609375 11.203125 -9.648438 C 10.167969 -10.546875 8.886719 -11.101562 7.191406 -11.101562 C 6.257812 -11.101562 5.53125 -10.960938 4.773438 -10.652344 C 3.976562 -10.375 3.285156 -9.925781 2.765625 -9.441406 C 2.214844 -8.820312 1.796875 -8.265625 1.488281 -7.539062 C 1.175781 -6.742188 1.039062 -5.878906 1.175781 -4.980469 C 1.175781 -4.082031 1.417969 -3.320312 1.902344 -2.699219 C 2.246094 -2.074219 2.699219 -1.554688 3.320312 -1.105469 C 3.941406 -0.691406 4.496094 -0.484375 5.222656 -0.3125 C 5.808594 -0.0703125 6.5 -0.0351562 7.125 -0.0351562 C 7.574219 -0.0351562 8.023438 -0.105469 8.472656 -0.242188 C 8.957031 -0.378906 9.300781 -0.519531 9.785156 -0.761719 C 10.132812 -0.898438 10.511719 -1.105469 10.824219 -1.417969 C 10.996094 -1.554688 11.203125 -1.730469 11.378906 -2.003906 L 11.585938 -1.417969 C 11.757812 -0.96875 11.894531 -0.621094 12.347656 -0.484375 C 12.65625 -0.171875 13.140625 -0.171875 13.761719 -0.3125 C 14.074219 -0.347656 14.316406 -0.554688 14.628906 -0.96875 C 14.765625 -1.246094 14.871094 -1.660156 14.699219 -2.214844 Z M 7.054688 -8.125 C 7.710938 -8.125 8.300781 -7.851562 8.886719 -7.539062 C 9.300781 -7.089844 9.511719 -6.46875 9.613281 -5.566406 C 9.613281 -4.875 9.335938 -4.324219 8.886719 -3.839844 C 8.300781 -3.214844 7.710938 -2.941406 7.054688 -2.941406 C 6.257812 -2.941406 5.707031 -3.148438 5.222656 -3.597656 C 4.773438 -4.046875 4.460938 -4.566406 4.460938 -5.429688 C 4.289062 -6.191406 4.53125 -6.8125 5.152344 -7.367188 C 5.601562 -7.816406 6.257812 -8.125 7.054688 -8.125 Z M 7.054688 -8.125 "/></g></g></g><g fill="#ffffff" fill-opacity="1"><g transform="translate(283.213472, 263.37623)"><g><path d="M 14.144531 -6.605469 C 14.003906 -8.367188 13.488281 -9.960938 12.414062 -11.101562 C 11.378906 -12.171875 9.855469 -12.796875 8.023438 -12.796875 C 6.363281 -12.796875 4.875 -12.3125 3.804688 -11.410156 C 2.558594 -10.410156 1.902344 -8.957031 1.902344 -6.742188 C 1.832031 -6.257812 1.796875 -5.773438 1.796875 -5.359375 L 1.796875 -2.941406 C 1.796875 -2.523438 1.832031 -2.144531 1.902344 -1.765625 C 1.902344 -1.210938 2.039062 -0.863281 2.351562 -0.691406 C 2.523438 -0.378906 2.972656 -0.3125 3.699219 -0.3125 C 4.183594 -0.3125 4.632812 -0.378906 5.082031 -0.691406 C 5.394531 -0.863281 5.53125 -1.210938 5.53125 -1.765625 L 5.53125 -6.605469 C 5.53125 -7.746094 5.742188 -8.472656 6.191406 -8.921875 C 6.675781 -9.234375 7.261719 -9.511719 8.023438 -9.511719 C 8.644531 -9.511719 9.164062 -9.234375 9.785156 -8.921875 C 10.234375 -8.507812 10.511719 -7.644531 10.511719 -6.433594 L 10.511719 -1.695312 C 10.511719 -1.417969 10.511719 -1.246094 10.652344 -1.105469 C 10.71875 -0.828125 10.859375 -0.726562 11.136719 -0.691406 C 11.273438 -0.554688 11.410156 -0.484375 11.6875 -0.484375 C 11.828125 -0.347656 12 -0.3125 12.242188 -0.3125 C 12.726562 -0.3125 13.105469 -0.378906 13.589844 -0.691406 C 13.902344 -0.863281 14.144531 -1.210938 14.144531 -1.765625 Z M 14.144531 -6.605469 "/></g></g></g><g fill="#ffffff" fill-opacity="1"><g transform="translate(299.396737, 263.37623)"><g><path d="M 11.445312 -0.378906 C 11.894531 -0.378906 12.3125 -0.621094 12.726562 -0.898438 C 13.039062 -1.070312 13.175781 -1.347656 13.175781 -1.765625 C 13.175781 -1.832031 13.175781 -1.9375 13.140625 -2.039062 L 13.070312 -2.351562 C 13.039062 -2.523438 12.933594 -2.664062 12.863281 -2.941406 C 12.621094 -3.214844 12.3125 -3.457031 11.6875 -3.457031 L 8.644531 -3.457031 C 8.023438 -3.457031 7.675781 -3.5625 7.644531 -3.839844 C 7.46875 -3.976562 7.402344 -4.355469 7.402344 -5.050781 L 7.402344 -8.4375 L 10.511719 -8.4375 C 10.824219 -8.4375 11.203125 -8.542969 11.515625 -8.820312 C 11.828125 -9.128906 12 -9.511719 12 -9.960938 C 12 -10.304688 11.792969 -10.652344 11.585938 -10.960938 C 11.273438 -11.273438 10.929688 -11.410156 10.476562 -11.410156 L 7.402344 -11.410156 L 7.402344 -17.222656 C 7.402344 -17.53125 7.296875 -17.878906 6.984375 -18.15625 C 6.675781 -18.464844 6.15625 -18.605469 5.636719 -18.605469 C 5.082031 -18.605469 4.566406 -18.464844 4.355469 -18.15625 C 4.046875 -17.914062 3.941406 -17.601562 3.941406 -17.324219 L 3.941406 -11.410156 L 1.589844 -11.410156 C 1.140625 -11.410156 0.898438 -11.171875 0.761719 -10.894531 C 0.484375 -10.476562 0.449219 -10.167969 0.449219 -9.890625 C 0.449219 -9.476562 0.484375 -9.199219 0.796875 -8.921875 C 1.003906 -8.578125 1.3125 -8.4375 1.730469 -8.4375 L 3.941406 -8.4375 L 3.941406 -4.53125 C 3.941406 -3.078125 4.289062 -2.074219 5.082031 -1.488281 C 5.742188 -0.726562 6.742188 -0.378906 8.09375 -0.378906 C 8.402344 -0.347656 8.679688 -0.3125 8.957031 -0.3125 L 10.410156 -0.3125 C 10.71875 -0.3125 11.066406 -0.347656 11.445312 -0.378906 Z M 11.445312 -0.378906 "/></g></g></g></svg>