<svg xmlns="http://www.w3.org/2000/svg" xmlns:xlink="http://www.w3.org/1999/xlink" width="500" zoomAndPan="magnify" viewBox="0 0 375 374.999991" height="500" preserveAspectRatio="xMidYMid meet" version="1.0"><defs><clipPath id="01104abe15"><path d="M 7 14.808594 L 368 14.808594 L 368 360.914062 L 7 360.914062 Z M 7 14.808594 " clip-rule="nonzero"/></clipPath><clipPath id="4abc880fd2"><path d="M 100.972656 14.808594 L 100.972656 360.191406 C 101.984375 360.265625 102.996094 360.265625 104.011719 360.265625 L 270.410156 360.265625 L 270.410156 14.808594 Z M 296.445312 14.808594 L 270.410156 14.808594 L 270.410156 360.191406 L 270.988281 360.191406 C 313.078125 360.191406 350.03125 325.84375 353.070312 283.898438 L 367.316406 91.027344 C 370.425781 49.15625 338.535156 14.808594 296.445312 14.808594 Z M 78.554688 14.808594 C 36.464844 14.808594 4.574219 49.15625 7.683594 91.101562 L 21.929688 283.972656 C 24.96875 324.902344 60.257812 358.601562 101.046875 360.191406 L 101.046875 14.808594 Z M 78.554688 14.808594 " clip-rule="nonzero"/></clipPath><clipPath id="36db30d74b"><path d="M 20 27.429688 L 355 27.429688 L 355 348 L 20 348 Z M 20 27.429688 " clip-rule="nonzero"/></clipPath><clipPath id="604368159c"><path d="M 107.296875 27.429688 L 107.296875 347.570312 C 108.234375 347.636719 109.171875 347.636719 110.113281 347.636719 L 264.351562 347.636719 L 264.351562 27.429688 Z M 288.484375 27.429688 L 264.351562 27.429688 L 264.351562 347.570312 L 264.886719 347.570312 C 303.898438 347.570312 338.152344 315.730469 340.96875 276.851562 L 354.175781 98.078125 C 357.054688 59.269531 327.496094 27.429688 288.484375 27.429688 Z M 86.515625 27.429688 C 47.503906 27.429688 17.945312 59.269531 20.824219 98.148438 L 34.03125 276.921875 C 36.847656 314.859375 69.558594 346.097656 107.363281 347.570312 L 107.363281 27.429688 Z M 86.515625 27.429688 " clip-rule="nonzero"/></clipPath><clipPath id="9079ba1d28"><path d="M 28 35.136719 L 347 35.136719 L 347 340 L 28 340 Z M 28 35.136719 " clip-rule="nonzero"/></clipPath><clipPath id="d58f75d7d6"><path d="M 111.15625 35.136719 L 111.15625 339.863281 C 112.050781 339.929688 112.945312 339.929688 113.835938 339.929688 L 260.652344 339.929688 L 260.652344 35.136719 Z M 283.621094 35.136719 L 260.652344 35.136719 L 260.652344 339.863281 L 261.164062 339.863281 C 298.296875 339.863281 330.898438 309.558594 333.578125 272.550781 L 346.148438 102.386719 C 348.894531 65.441406 320.753906 35.136719 283.621094 35.136719 Z M 91.378906 35.136719 C 54.246094 35.136719 26.105469 65.441406 28.851562 102.449219 L 41.421875 272.613281 C 44.101562 308.726562 75.234375 338.460938 111.222656 339.863281 L 111.222656 35.136719 Z M 91.378906 35.136719 " clip-rule="nonzero"/></clipPath><clipPath id="622f2aa234"><path d="M 89.835938 163.789062 L 142.414062 163.789062 L 142.414062 201.347656 L 89.835938 201.347656 Z M 89.835938 163.789062 " clip-rule="nonzero"/></clipPath><clipPath id="4c768547eb"><path d="M 90.1875 198.148438 C 89.953125 196.535156 89.835938 194.921875 89.835938 193.304688 C 89.835938 177.109375 101.484375 163.789062 116.125 163.789062 C 130.765625 163.789062 142.414062 177.109375 142.414062 193.304688 C 142.414062 194.921875 142.296875 196.535156 142.0625 198.148438 C 141.445312 202.433594 135.257812 202.433594 134.640625 198.148438 C 133.085938 187.585938 125.191406 179.898438 116.125 179.898438 C 107.058594 179.898438 99.164062 187.585938 97.609375 198.148438 C 96.992188 202.433594 90.800781 202.433594 90.1875 198.148438 Z M 90.1875 198.148438 " clip-rule="nonzero"/></clipPath><clipPath id="9865dc1138"><path d="M 232.554688 163.789062 L 284.355469 163.789062 L 284.355469 201.347656 L 232.554688 201.347656 Z M 232.554688 163.789062 " clip-rule="nonzero"/></clipPath><clipPath id="4c80178f08"><path d="M 232.90625 198.148438 C 232.671875 196.535156 232.554688 194.921875 232.554688 193.304688 C 232.554688 177.109375 244.203125 163.789062 258.84375 163.789062 C 273.488281 163.789062 285.136719 177.109375 285.136719 193.304688 C 285.136719 194.921875 285.019531 196.535156 284.785156 198.148438 C 284.167969 202.433594 277.976562 202.433594 277.359375 198.148438 C 275.804688 187.585938 267.914062 179.898438 258.84375 179.898438 C 249.777344 179.898438 241.886719 187.585938 240.332031 198.148438 C 239.714844 202.433594 233.523438 202.433594 232.90625 198.148438 Z M 232.90625 198.148438 " clip-rule="nonzero"/></clipPath><clipPath id="b81b731c62"><path d="M 111 209 L 265 209 L 265 298.800781 L 111 298.800781 Z M 111 209 " clip-rule="nonzero"/></clipPath><clipPath id="9f69bf9d83"><path d="M 208.757812 273.96875 C 212.542969 264.285156 213.746094 252.078125 212.25 237.261719 C 212.015625 235.03125 212.101562 232.800781 212.484375 230.628906 C 214.773438 217.101562 227.597656 208.007812 241.09375 210.324219 C 243.03125 210.648438 244.9375 211.175781 246.757812 211.910156 C 258.347656 216.488281 265.449219 228.136719 264.390625 240.402344 L 264.304688 240.957031 C 264.070312 241.925781 263.804688 242.894531 263.480469 243.832031 C 263.453125 244.097656 263.394531 244.363281 263.304688 244.625 C 253.679688 276.609375 222.871094 298.996094 187.484375 298.996094 C 152.097656 298.996094 121.289062 276.609375 111.664062 244.625 C 110.402344 240.460938 116.066406 237.847656 118.414062 241.515625 C 132.203125 262.878906 158.40625 276.460938 187.484375 276.460938 C 194.792969 276.460938 201.949219 275.613281 208.757812 273.96875 Z M 244 218.863281 C 242.648438 218.335938 241.269531 217.953125 239.832031 217.71875 C 230.414062 216.105469 221.492188 222.445312 219.878906 231.863281 C 219.613281 233.417969 219.554688 234.972656 219.730469 236.5 C 221.933594 258.5625 218.558594 275.875 209.433594 288.230469 C 232.9375 281.039062 251.1875 262.554688 256.9375 239.460938 C 257.582031 230.601562 252.390625 222.207031 244 218.863281 Z M 244 218.863281 " clip-rule="nonzero"/></clipPath></defs><g clip-path="url(#01104abe15)"><g clip-path="url(#4abc880fd2)"><path fill="#ffffff" d="M 7.46875 14.808594 L 367.53125 14.808594 L 367.53125 360.191406 L 7.46875 360.191406 Z M 7.46875 14.808594 " fill-opacity="1" fill-rule="nonzero"/></g></g><g clip-path="url(#36db30d74b)"><g clip-path="url(#604368159c)"><path fill="#00000" d="M 20.625 27.429688 L 354.375 27.429688 L 354.375 347.570312 L 20.625 347.570312 Z M 20.625 27.429688 " fill-opacity="1" fill-rule="nonzero"/></g></g><g clip-path="url(#9079ba1d28)"><g clip-path="url(#d58f75d7d6)"><path fill="#ffffff" d="M 28.660156 35.136719 L 346.339844 35.136719 L 346.339844 339.863281 L 28.660156 339.863281 Z M 28.660156 35.136719 " fill-opacity="1" fill-rule="nonzero"/></g></g><g clip-path="url(#622f2aa234)"><g clip-path="url(#4c768547eb)"><path fill="#00000" d="M 52.277344 238.90625 L 179.972656 238.90625 L 179.972656 126.230469 L 52.277344 126.230469 Z M 52.277344 238.90625 " fill-opacity="1" fill-rule="nonzero"/></g></g><g clip-path="url(#9865dc1138)"><g clip-path="url(#4c80178f08)"><path fill="#00000" d="M 194.996094 238.90625 L 322.695312 238.90625 L 322.695312 126.230469 L 194.996094 126.230469 Z M 194.996094 238.90625 " fill-opacity="1" fill-rule="nonzero"/></g></g><g clip-path="url(#b81b731c62)"><g clip-path="url(#9f69bf9d83)"><path fill="#00000" d="M 73.929688 336.554688 L 302.066406 336.554688 L 302.066406 172.386719 L 73.929688 172.386719 Z M 73.929688 336.554688 " fill-opacity="1" fill-rule="nonzero"/></g></g></svg>